<?xml version="1.0" encoding="UTF-8"?>
<!DOCTYPE svg PUBLIC "-//W3C//DTD SVG 1.1//EN" "http://www.w3.org/Graphics/SVG/1.1/DTD/svg11.dtd">
<!-- Creator: CorelDRAW 2018 -->
<svg xmlns="http://www.w3.org/2000/svg" xml:space="preserve" width="314px" height="224px" version="1.1" style="shape-rendering:geometricPrecision; text-rendering:geometricPrecision; image-rendering:optimizeQuality; fill-rule:evenodd; clip-rule:evenodd"
viewBox="0 0 67.98 48.534"
 xmlns:xlink="http://www.w3.org/1999/xlink">
 <defs>
  <style type="text/css">
   <![CDATA[
    .fil2 {fill:#444654}
    .fil4 {fill:#707487}
    .fil9 {fill:#C2A17E}
    .fil3 {fill:#C7CFE2}
    .fil12 {fill:#D2B493}
    .fil8 {fill:#E6C79C}
    .fil11 {fill:#EBD2AF}
    .fil10 {fill:#FFE5BD}
    .fil1 {fill:white}
    .fil0 {fill:white}
    .fil7 {fill:#385E96;fill-rule:nonzero}
    .fil6 {fill:#B4B4B4;fill-rule:nonzero}
    .fil5 {fill:#E64538;fill-rule:nonzero}
   ]]>
  </style>
 </defs>
 <g id="Слой_x0020_1">
  <metadata id="CorelCorpID_0Corel-Layer"/>
  <g id="_877052176">
   <path class="fil0" d="M65.934 40.962c1.148,0.104 2.046,1.069 2.046,2.244 0,2.938 -2.389,5.328 -5.328,5.328l-57.324 0c-2.939,0 -5.328,-2.39 -5.328,-5.328 0,-1.175 0.899,-2.141 2.047,-2.244l0 -35.027c0,-3.277 2.67,-5.935 5.945,-5.935l51.995 0c3.275,0 5.947,2.657 5.947,5.935l0 35.027z"/>
   <g>
    <rect class="fil1" x="7.372" y="5.325" width="53.238" height="32.762"/>
    <path class="fil2" d="M59.987 1.229l-51.995 0c-2.601,0 -4.716,2.111 -4.716,4.706l0 37.271c0,0.565 0.458,1.023 1.024,1.023l59.38 0c0.567,0 1.025,-0.458 1.025,-1.023l0 -37.271c0,-2.595 -2.117,-4.706 -4.718,-4.706l0 0zm-52.615 35.834l0 -30.715c0,-0.565 0.458,-1.023 1.023,-1.023l51.19 0c0.566,0 1.024,0.458 1.024,1.023l0 30.715c0,0.565 -0.458,1.023 -1.024,1.023l-51.19 0c-0.565,0 -1.023,-0.458 -1.023,-1.023z"/>
    <path class="fil3" d="M65.728 42.181l-63.476 0c-0.565,0 -1.023,0.458 -1.023,1.025l0 0c0,2.26 1.838,4.099 4.099,4.099l57.324 0c2.262,0 4.1,-1.839 4.1,-4.099l0 0c0,-0.567 -0.458,-1.025 -1.024,-1.025l0 0z"/>
    <path class="fil4" d="M29.895 44.229l8.19 0c1.131,0 2.048,-0.917 2.048,-2.048l-12.286 0c0,1.131 0.917,2.048 2.048,2.048l0 0z"/>
    <g>
     <path class="fil5" d="M48.606 6.892l0 -0.631 0.681 0 0 0.631 -0.681 0zm0 2.929l0 -2.581 0.681 0 0 2.581 -0.681 0zm3.453 0l-0.681 0 0 -1.315c0,-0.279 -0.015,-0.458 -0.044,-0.539 -0.03,-0.083 -0.077,-0.146 -0.144,-0.191 -0.066,-0.046 -0.145,-0.068 -0.239,-0.068 -0.119,0 -0.226,0.032 -0.321,0.096 -0.095,0.065 -0.159,0.152 -0.194,0.258 -0.036,0.107 -0.053,0.304 -0.053,0.592l0 1.167 -0.682 0 0 -2.581 0.632 0 0 0.379c0.226,-0.289 0.511,-0.433 0.855,-0.433 0.15,0 0.289,0.027 0.414,0.081 0.126,0.054 0.22,0.123 0.284,0.207 0.065,0.084 0.11,0.18 0.135,0.286 0.025,0.108 0.038,0.261 0.038,0.459l0 1.602 0 0zm0.281 -2.581l0.378 0 0 -0.194c0,-0.218 0.023,-0.38 0.07,-0.487 0.046,-0.108 0.131,-0.195 0.256,-0.262 0.125,-0.067 0.282,-0.101 0.473,-0.101 0.195,0 0.386,0.029 0.573,0.087l-0.086 0.474c-0.112,-0.025 -0.218,-0.039 -0.321,-0.039 -0.102,0 -0.173,0.024 -0.217,0.07 -0.044,0.046 -0.067,0.136 -0.067,0.268l0 0.184 0.513 0 0 0.537 -0.513 0 0 2.044 -0.681 0 0 -2.044 -0.378 0 0 -0.537 0 0zm1.685 1.259c0,-0.227 0.055,-0.447 0.167,-0.659 0.112,-0.213 0.27,-0.374 0.475,-0.486 0.205,-0.112 0.432,-0.168 0.685,-0.168 0.391,0 0.71,0.127 0.96,0.38 0.249,0.255 0.373,0.574 0.373,0.962 0,0.391 -0.126,0.715 -0.377,0.972 -0.252,0.258 -0.458,0.386 -0.84,0.386 -0.236,0 -0.572,-0.054 -0.787,-0.161 -0.214,-0.107 -0.377,-0.263 -0.489,-0.471 -0.112,-0.206 -0.167,-0.458 -0.167,-0.755l0 0zm0.701 0.036c0,0.256 0.06,0.453 0.182,0.589 0.121,0.137 0.271,0.205 0.448,0.205 0.178,0 0.327,-0.068 0.448,-0.205 0.119,-0.136 0.18,-0.334 0.18,-0.593 0,-0.253 -0.061,-0.448 -0.18,-0.584 -0.121,-0.136 -0.27,-0.205 -0.448,-0.205 -0.177,0 -0.327,0.069 -0.448,0.205 -0.122,0.136 -0.182,0.332 -0.182,0.588z"/>
     <path class="fil6" d="M56.699 9.821l0 -0.309 0.31 0 0 0.309 -0.31 0zm0.617 0l0 -1.619 0.31 0 0 0.584c0.095,-0.109 0.208,-0.163 0.339,-0.163 0.143,0 0.261,0.052 0.354,0.155 0.094,0.104 0.141,0.253 0.141,0.447 0,0.2 -0.048,0.355 -0.143,0.463 -0.096,0.108 -0.212,0.163 -0.347,0.163 -0.067,0 -0.134,-0.018 -0.199,-0.052 -0.065,-0.035 -0.121,-0.085 -0.168,-0.15l0 0.172 -0.287 0 0 0zm0.305 -0.609c0,0.121 0.019,0.212 0.057,0.27 0.054,0.083 0.125,0.124 0.215,0.124 0.068,0 0.127,-0.029 0.176,-0.088 0.048,-0.058 0.072,-0.152 0.072,-0.278 0,-0.134 -0.025,-0.231 -0.074,-0.29 -0.048,-0.06 -0.11,-0.09 -0.186,-0.09 -0.075,0 -0.136,0.029 -0.186,0.088 -0.049,0.057 -0.074,0.145 -0.074,0.264zm0.94 -0.564l0.33 0 0.282 0.832 0.275 -0.832 0.321 0 -0.414 1.129 -0.075 0.204c-0.028,0.068 -0.053,0.12 -0.078,0.156 -0.025,0.036 -0.054,0.066 -0.085,0.088 -0.033,0.022 -0.072,0.04 -0.119,0.052 -0.047,0.012 -0.1,0.019 -0.159,0.019 -0.059,0 -0.118,-0.007 -0.176,-0.019l-0.027 -0.242c0.048,0.01 0.092,0.015 0.131,0.015 0.073,0 0.127,-0.021 0.161,-0.064 0.035,-0.043 0.062,-0.097 0.08,-0.163l-0.447 -1.175 0 0z"/>
     <path class="fil7" d="M37.099 9.836l0 -2.975 -1.06 0 0 -0.605 2.841 0 0 0.605 -1.056 0 0 2.975 -0.725 0zm2.448 0l-0.685 0 0 -2.595 0.635 0 0 0.368c0.109,-0.174 0.207,-0.288 0.295,-0.342 0.087,-0.054 0.187,-0.081 0.298,-0.081 0.156,0 0.307,0.043 0.452,0.129l-0.213 0.598c-0.115,-0.075 -0.223,-0.112 -0.322,-0.112 -0.097,0 -0.178,0.026 -0.245,0.079 -0.066,0.053 -0.119,0.149 -0.158,0.287 -0.038,0.138 -0.057,0.428 -0.057,0.869l0 0.8 0 0zm1.726 -1.795l-0.621 -0.11c0.071,-0.254 0.192,-0.441 0.362,-0.562 0.171,-0.122 0.425,-0.183 0.762,-0.183 0.305,0 0.534,0.036 0.684,0.108 0.149,0.073 0.255,0.165 0.316,0.276 0.061,0.112 0.092,0.316 0.092,0.614l-0.01 0.8c0,0.228 0.01,0.396 0.032,0.505 0.022,0.108 0.062,0.223 0.122,0.347l-0.679 0c-0.018,-0.045 -0.041,-0.112 -0.067,-0.2 -0.01,-0.041 -0.019,-0.068 -0.024,-0.08 -0.116,0.115 -0.241,0.201 -0.375,0.258 -0.133,0.058 -0.275,0.087 -0.426,0.087 -0.265,0 -0.475,-0.073 -0.628,-0.218 -0.154,-0.144 -0.231,-0.327 -0.231,-0.549 0,-0.145 0.035,-0.276 0.106,-0.391 0.069,-0.114 0.167,-0.203 0.293,-0.264 0.127,-0.06 0.308,-0.114 0.546,-0.16 0.32,-0.06 0.542,-0.117 0.665,-0.168l0 -0.069c0,-0.134 -0.032,-0.228 -0.097,-0.286 -0.066,-0.057 -0.189,-0.085 -0.37,-0.085 -0.123,0 -0.217,0.024 -0.286,0.073 -0.069,0.049 -0.124,0.135 -0.166,0.257l0 0zm0.919 0.555c-0.087,0.029 -0.226,0.064 -0.417,0.105 -0.19,0.04 -0.315,0.081 -0.373,0.119 -0.09,0.064 -0.135,0.144 -0.135,0.242 0,0.096 0.036,0.179 0.108,0.249 0.072,0.07 0.162,0.105 0.273,0.105 0.124,0 0.242,-0.041 0.354,-0.122 0.083,-0.062 0.138,-0.137 0.164,-0.227 0.017,-0.059 0.026,-0.17 0.026,-0.334l0 -0.137 0 0zm3.435 1.24l-0.685 0 0 -1.322c0,-0.281 -0.014,-0.462 -0.043,-0.543 -0.031,-0.083 -0.078,-0.146 -0.144,-0.192 -0.067,-0.046 -0.148,-0.068 -0.241,-0.068 -0.12,0 -0.227,0.033 -0.322,0.097 -0.096,0.065 -0.161,0.152 -0.196,0.259 -0.036,0.108 -0.053,0.306 -0.053,0.595l0 1.174 -0.686 0 0 -2.595 0.636 0 0 0.381c0.227,-0.291 0.513,-0.436 0.859,-0.436 0.151,0 0.29,0.027 0.417,0.082 0.126,0.055 0.221,0.124 0.285,0.208 0.065,0.085 0.11,0.181 0.135,0.289 0.026,0.107 0.038,0.26 0.038,0.46l0 1.611 0 0zm0.274 -0.73l0.691 -0.105c0.029,0.132 0.087,0.233 0.177,0.302 0.089,0.069 0.216,0.103 0.377,0.103 0.177,0 0.31,-0.033 0.4,-0.098 0.06,-0.046 0.09,-0.107 0.09,-0.183 0,-0.052 -0.016,-0.096 -0.049,-0.13 -0.034,-0.033 -0.111,-0.063 -0.229,-0.091 -0.554,-0.122 -0.905,-0.234 -1.053,-0.335 -0.206,-0.14 -0.309,-0.336 -0.309,-0.585 0,-0.225 0.09,-0.415 0.267,-0.568 0.177,-0.153 0.452,-0.23 0.825,-0.23 0.355,0 0.619,0.058 0.791,0.174 0.173,0.117 0.292,0.288 0.357,0.516l-0.644 0.12c-0.028,-0.102 -0.082,-0.18 -0.159,-0.234 -0.077,-0.054 -0.188,-0.081 -0.333,-0.081 -0.181,0 -0.311,0.025 -0.39,0.076 -0.053,0.036 -0.078,0.083 -0.078,0.139 0,0.049 0.022,0.091 0.068,0.125 0.062,0.046 0.276,0.11 0.643,0.193 0.367,0.084 0.622,0.186 0.767,0.306 0.144,0.122 0.217,0.292 0.217,0.511 0,0.237 -0.1,0.442 -0.299,0.613 -0.199,0.171 -0.493,0.257 -0.882,0.257 -0.354,0 -0.634,-0.072 -0.841,-0.214 -0.205,-0.143 -0.34,-0.336 -0.404,-0.581l0 0z"/>
    </g>
    <g>
     <path class="fil2" d="M42.602 11.581c0.007,0 0.015,0 0.023,0l2.59 0c0,0 0,0 0.001,0 0.656,0 1.188,0.533 1.188,1.189l0 19.833c0.001,0.008 0.001,0.017 0.001,0.026l0 2.591c0,0.656 -0.533,1.188 -1.189,1.188l-2.581 0c-0.003,0 -0.007,0 -0.01,0l-1.295 0c-0.003,0 -0.006,0 -0.01,0l-14.664 0c-0.002,0 -0.003,0 -0.005,0l-1.276 0c-0.007,0 -0.013,0.001 -0.02,0.001l-2.59 -0.001c0,0 0,0 0,0 -0.134,0 -0.263,-0.022 -0.383,-0.063 -0.468,-0.16 -0.804,-0.603 -0.805,-1.125 0,0 0,0 0,0l0 -2.591c0,-0.012 0,-0.025 0,-0.038l0 -17.207c0,-0.008 0,-0.016 0,-0.024l0 -2.591c0,0 0,0 0,0 0,-0.452 0.254,-0.845 0.626,-1.046 0.167,-0.09 0.359,-0.141 0.562,-0.141 0,0 0,0 0,0l2.591 -0.001c0.008,0 0.016,0 0.024,0l1.271 0c0.008,0 0.015,0 0.023,0.001l15.928 -0.001z"/>
     <g>
      <rect class="fil8" x="25.788" y="15.792" width="16.406" height="16.406"/>
      <rect class="fil9" x="25.788" y="15.792" width="16.406" height="0.863"/>
      <rect class="fil9" x="25.788" y="23.563" width="16.406" height="0.863"/>
      <rect class="fil9" x="25.788" y="19.678" width="16.406" height="0.863"/>
      <rect class="fil9" x="25.788" y="27.449" width="16.406" height="0.863"/>
      <rect class="fil9" x="25.788" y="31.334" width="16.406" height="0.863"/>
      <path class="fil10" d="M22.334 15.36l0 -2.591c0,-0.237 0.193,-0.431 0.432,-0.431l22.449 0c0.239,0 0.433,0.194 0.432,0.432l0 2.59c0.001,0.238 -0.193,0.432 -0.431,0.432l-22.45 0c-0.239,0 -0.432,-0.193 -0.432,-0.432z"/>
      <rect class="fil11" x="25.356" y="12.338" width="1.295" height="3.454"/>
      <rect class="fil11" x="41.33" y="12.338" width="1.295" height="3.454"/>
      <path class="fil10" d="M22.334 35.22l-0.001 -2.591c0.001,-0.238 0.194,-0.431 0.433,-0.432l22.45 0.001c0.239,0 0.431,0.194 0.432,0.431l0 2.591c-0.001,0.238 -0.194,0.432 -0.432,0.432l-22.451 0c-0.237,0 -0.431,-0.194 -0.431,-0.432l0 0z"/>
      <rect class="fil11" x="25.356" y="32.198" width="1.295" height="3.454"/>
      <rect class="fil11" x="41.33" y="32.198" width="1.295" height="3.454"/>
      <path class="fil10" d="M25.355 35.652l-2.59 0c-0.237,0 -0.431,-0.194 -0.431,-0.432l0 -22.451c0,-0.237 0.193,-0.431 0.432,-0.431l2.59 0c0.238,0 0.432,0.193 0.431,0.432l0.001 22.45c-0.001,0.238 -0.194,0.432 -0.433,0.432z"/>
      <path class="fil10" d="M45.216 35.652l-2.591 -0.001c-0.239,0.001 -0.431,-0.193 -0.432,-0.431l0.001 -22.45c-0.001,-0.239 0.193,-0.432 0.431,-0.432l2.59 0c0.239,0 0.433,0.194 0.432,0.432l0.001 22.45c-0.001,0.238 -0.194,0.432 -0.432,0.432l0 0z"/>
      <circle class="fil12" cx="24.061" cy="14.065" r="0.432"/>
      <circle class="fil12" cx="24.061" cy="33.925" r="0.432"/>
      <circle class="fil12" cx="43.92" cy="14.065" r="0.432"/>
      <circle class="fil12" cx="43.921" cy="33.925" r="0.432"/>
      <circle class="fil12" cx="40.898" cy="29.823" r="0.432"/>
      <circle class="fil12" cx="40.898" cy="25.938" r="0.432"/>
      <circle class="fil12" cx="40.898" cy="22.052" r="0.432"/>
      <circle class="fil12" cx="40.898" cy="18.166" r="0.432"/>
      <circle class="fil12" cx="27.299" cy="29.823" r="0.432"/>
      <circle class="fil12" cx="27.299" cy="25.938" r="0.432"/>
      <circle class="fil12" cx="27.299" cy="22.052" r="0.432"/>
      <circle class="fil12" cx="27.299" cy="18.166" r="0.432"/>
     </g>
    </g>
   </g>
  </g>
 </g>
</svg>
