<?xml version="1.0" encoding="UTF-8"?>
<!DOCTYPE svg PUBLIC "-//W3C//DTD SVG 1.1//EN" "http://www.w3.org/Graphics/SVG/1.1/DTD/svg11.dtd">
<!-- Creator: CorelDRAW 2018 -->
<svg xmlns="http://www.w3.org/2000/svg" xml:space="preserve" width="337px" height="224px" version="1.1" style="shape-rendering:geometricPrecision; text-rendering:geometricPrecision; image-rendering:optimizeQuality; fill-rule:evenodd; clip-rule:evenodd"
viewBox="0 0 50.351 33.469"
 xmlns:xlink="http://www.w3.org/1999/xlink">
 <defs>
  <style type="text/css">
   <![CDATA[
    .fil4 {fill:#24242B}
    .fil1 {fill:#444654}
    .fil2 {fill:#707487}
    .fil8 {fill:#959CB3}
    .fil6 {fill:#AFB9D2}
    .fil10 {fill:#C2A17E}
    .fil5 {fill:#C7CFE2}
    .fil13 {fill:#D2B493}
    .fil9 {fill:#E6C79C}
    .fil12 {fill:#EBD2AF}
    .fil7 {fill:#FF9100}
    .fil3 {fill:#FFC300}
    .fil11 {fill:#FFE5BD}
    .fil0 {fill:white}
   ]]>
  </style>
 </defs>
 <g id="Слой_x0020_1">
  <metadata id="CorelCorpID_0Corel-Layer"/>
  <g id="_873146336">
   <path class="fil0" d="M28.263 29.221l-6.797 0c-0.937,0 -1.697,-0.76 -1.697,-1.697l0 -0.003 -5.103 0c0,0.001 0,0.002 0,0.003 0,3.283 -2.662,5.945 -5.945,5.945 -3.283,0 -5.945,-2.662 -5.945,-5.945 0,-0.001 0,-0.002 0,-0.003l-0.852 0c-0.937,0 -1.697,-0.76 -1.697,-1.697l0 -4.827c-0.144,-0.227 -0.227,-0.496 -0.227,-0.785l0 -1.043c0,-0.009 0,-0.019 0,-0.028l0 -6.898c0,-0.008 0,-0.017 0,-0.025l0 -1.042c0,-0.113 0.013,-0.224 0.038,-0.333 -0.025,-0.108 -0.038,-0.219 -0.038,-0.332l0 -1.042c0,-0.01 0,-0.02 0,-0.029l0 -6.898c0,-0.008 0,-0.016 0,-0.025l0 -1.042c0,-0.814 0.661,-1.475 1.475,-1.475l1.052 0 0.512 0 6.418 0c0.003,0 0.007,0 0.011,0l1.043 0c0.112,0 0.224,0.013 0.333,0.038 0.108,-0.025 0.219,-0.038 0.332,-0.038l1.052 0 0.512 0 6.417 0c0.004,0 0.008,0 0.012,0l1.042 0c0.113,0 0.225,0.013 0.334,0.038 0.108,-0.025 0.219,-0.038 0.332,-0.038l1.052 0 0.511 0 6.418 0c0.004,0 0.008,0 0.012,0l1.042 0c0.814,0 1.475,0.661 1.475,1.475l0 3.96 0.277 0 0 -2.551c0,-0.937 0.76,-1.697 1.697,-1.697l5.519 0c2.052,0 3.811,1.466 4.178,3.485l1.136 6.252 3.461 0.989c1.093,0.312 1.847,1.312 1.847,2.449l0 2.767c0.521,0.466 0.849,1.144 0.849,1.898l0 5.948c0,0.688 -0.41,1.281 -0.999,1.547 -0.266,0.589 -0.859,0.999 -1.547,0.999l-1.702 0c0,0.001 0,0.002 0,0.003 0,3.283 -2.662,5.945 -5.945,5.945 -3.283,0 -5.945,-2.662 -5.945,-5.945 0,-0.001 0,-0.002 0,-0.003l-2.554 0 0 0.003c0,0.937 -0.76,1.697 -1.697,1.697l-1.699 0z"/>
   <g>
    <path class="fil1" d="M0.943 10.843c-0.06,-0.096 -0.095,-0.21 -0.095,-0.332l-0.001 -1.043c0,-0.006 0,-0.012 0.001,-0.018l0 -6.916c0,-0.005 -0.001,-0.011 -0.001,-0.017l0.001 -1.042c0,-0.346 0.281,-0.627 0.627,-0.627l1.052 -0.001 0.512 0.001 6.422 -0.001c0.002,0 0.005,0 0.007,0l1.043 0c0.122,0 0.236,0.035 0.332,0.096 0.097,-0.061 0.211,-0.095 0.333,-0.095l1.052 -0.001 0.512 0.001 6.422 -0.001c0.002,0 0.005,0 0.007,0l1.042 0c0.123,0 0.237,0.035 0.333,0.096 0.097,-0.061 0.211,-0.095 0.333,-0.095l1.052 -0.001 0.511 0.001 6.423 -0.001c0.002,0 0.004,0 0.007,0l1.042 0c0.347,0 0.628,0.282 0.628,0.628l0 7.981c0,0.004 0,0.008 0,0.012l0 1.043c0,0.122 -0.035,0.236 -0.095,0.333 0.06,0.096 0.095,0.21 0.095,0.332l0 7.98c0,0.005 0,0.009 0,0.013l0 1.043c0,0.346 -0.281,0.627 -0.628,0.627l-7.976 0c-0.006,0 -0.011,0 -0.017,0l-1.043 0c-0.122,0 -0.235,-0.035 -0.332,-0.095 -0.096,0.06 -0.21,0.095 -0.332,0.095l-7.977 0c-0.006,0 -0.011,0 -0.017,0l-1.042 0c-0.122,0 -0.236,-0.035 -0.333,-0.095 -0.096,0.06 -0.21,0.095 -0.332,0.095l-7.977 0c-0.005,0 -0.011,0 -0.017,0l-1.042 0c-0.346,0 -0.627,-0.281 -0.627,-0.627l-0.001 -1.043c0,-0.006 0,-0.012 0.001,-0.018l0 -6.916c0,-0.006 -0.001,-0.011 -0.001,-0.017l0.001 -1.042c0,-0.122 0.035,-0.236 0.095,-0.333z"/>
    <polygon class="fil0" points="42.707,12.23 33.361,12.23 33.361,3.734 41.008,3.734 "/>
    <path class="fil2" d="M1.924 26.674l45.881 0c0.469,0 0.85,-0.38 0.85,-0.85l0 -5.947 -47.581 0 0 5.947c0,0.47 0.381,0.85 0.85,0.85z"/>
    <polygon class="fil1" points="33.361,19.877 33.361,6.283 29.962,6.283 29.962,19.877 1.074,19.877 1.074,23.276 48.654,23.276 48.654,19.877 "/>
    <path class="fil3" d="M47.422 12.728l-3.967 -1.134 -1.231 -6.77c-0.295,-1.616 -1.701,-2.789 -3.344,-2.789l-5.519 0c-0.47,0 -0.85,0.38 -0.85,0.849l0 15.294 16.143 0 0 -3.816c0,-0.759 -0.502,-1.426 -1.232,-1.634zm-11.512 -1.348c-0.939,0 -1.7,-0.76 -1.7,-1.699l0 -4.248c0,-0.469 0.381,-0.85 0.85,-0.85l4.694 0c0.411,0 0.763,0.295 0.836,0.699l0.994 5.515c0.055,0.304 -0.179,0.583 -0.488,0.583l-5.186 0 0 0z"/>
    <circle class="fil4" cx="40.158" cy="27.524" r="5.098"/>
    <circle class="fil5" cx="40.158" cy="27.524" r="3.398"/>
    <circle class="fil6" cx="40.158" cy="27.524" r="1.274"/>
    <circle class="fil4" cx="8.721" cy="27.524" r="5.098"/>
    <circle class="fil5" cx="8.721" cy="27.524" r="3.398"/>
    <circle class="fil6" cx="8.721" cy="27.524" r="1.274"/>
    <path class="fil7" d="M33.361 25.824l0.324 0c0.322,0 0.617,-0.181 0.76,-0.469l1.845 -3.689c0.287,-0.576 0.876,-0.939 1.52,-0.939l4.697 0c0.643,0 1.232,0.363 1.519,0.939l1.845 3.689c0.144,0.288 0.438,0.469 0.76,0.469l2.023 0c0.47,0 0.85,-0.38 0.85,-0.849l0 -5.948c0,-0.938 -0.761,-1.699 -1.699,-1.699l-15.294 0 0 7.647c0,0.469 0.381,0.849 0.85,0.849l0 0z"/>
    <path class="fil6" d="M29.962 28.373l-8.496 0c-0.47,0 -0.85,-0.38 -0.85,-0.849l0 -3.399c0,-0.469 0.38,-0.849 0.85,-0.849l8.496 0c0.47,0 0.85,0.38 0.85,0.849l0 3.399c0,0.469 -0.38,0.849 -0.85,0.849z"/>
    <path class="fil8" d="M24.015 24.975l0 0c-0.469,0 -0.85,0.38 -0.85,0.849l0 2.549 1.699 0 0 -2.549c0,-0.469 -0.38,-0.849 -0.849,-0.849z"/>
    <path class="fil8" d="M27.413 24.975l0 0c-0.469,0 -0.849,0.38 -0.849,0.849l0 2.549 1.699 0 0 -2.549c0,-0.469 -0.381,-0.849 -0.85,-0.849z"/>
    <rect class="fil9" x="2.691" y="2.691" width="6.603" height="6.603"/>
    <rect class="fil10" x="2.691" y="2.691" width="6.603" height="0.348"/>
    <rect class="fil10" x="2.691" y="5.819" width="6.603" height="0.348"/>
    <rect class="fil10" x="2.691" y="4.255" width="6.603" height="0.348"/>
    <rect class="fil10" x="2.691" y="7.383" width="6.603" height="0.348"/>
    <rect class="fil10" x="2.691" y="8.947" width="6.603" height="0.348"/>
    <path class="fil11" d="M1.301 2.517l0 -1.042c0,-0.096 0.078,-0.174 0.174,-0.174l9.036 0c0.096,0 0.174,0.078 0.174,0.174l-0.001 1.043c0.001,0.095 -0.077,0.173 -0.173,0.173l-9.036 0c-0.096,0 -0.173,-0.077 -0.174,-0.174z"/>
    <rect class="fil12" x="2.518" y="1.301" width="0.521" height="1.39"/>
    <rect class="fil12" x="8.947" y="1.301" width="0.521" height="1.39"/>
    <path class="fil11" d="M1.302 10.511l-0.001 -1.043c0,-0.096 0.078,-0.174 0.174,-0.174l9.036 0.001c0.096,-0.001 0.174,0.077 0.174,0.173l0 1.043c0,0.096 -0.078,0.174 -0.174,0.174l-9.036 0c-0.096,0 -0.174,-0.078 -0.173,-0.174l0 0z"/>
    <rect class="fil12" x="2.518" y="9.294" width="0.521" height="1.39"/>
    <rect class="fil12" x="8.947" y="9.294" width="0.521" height="1.39"/>
    <path class="fil11" d="M2.517 10.685l-1.042 0c-0.096,0 -0.174,-0.078 -0.174,-0.174l0 -9.036c0,-0.096 0.078,-0.174 0.174,-0.174l1.043 0c0.096,0 0.174,0.078 0.173,0.174l0 9.036c0,0.096 -0.077,0.174 -0.174,0.174z"/>
    <path class="fil11" d="M10.511 10.685l-1.043 -0.001c-0.096,0.001 -0.173,-0.077 -0.174,-0.173l0.001 -9.036c-0.001,-0.096 0.077,-0.173 0.173,-0.174l1.043 0c0.096,0 0.174,0.078 0.174,0.174l0 9.036c0,0.096 -0.078,0.174 -0.174,0.173l0 0.001z"/>
    <circle class="fil13" cx="1.996" cy="1.996" r="0.174"/>
    <circle class="fil13" cx="1.996" cy="9.989" r="0.174"/>
    <circle class="fil13" cx="9.99" cy="1.996" r="0.174"/>
    <circle class="fil13" cx="9.99" cy="9.989" r="0.174"/>
    <circle class="fil13" cx="8.773" cy="8.339" r="0.174"/>
    <circle class="fil13" cx="8.773" cy="6.775" r="0.174"/>
    <circle class="fil13" cx="8.773" cy="5.211" r="0.174"/>
    <circle class="fil13" cx="8.773" cy="3.647" r="0.174"/>
    <circle class="fil13" cx="3.3" cy="8.339" r="0.174"/>
    <circle class="fil13" cx="3.3" cy="6.775" r="0.174"/>
    <circle class="fil13" cx="3.3" cy="5.211" r="0.174"/>
    <circle class="fil13" cx="3.3" cy="3.647" r="0.174"/>
    <rect class="fil9" x="12.392" y="2.691" width="6.603" height="6.603"/>
    <rect class="fil10" x="12.392" y="2.691" width="6.603" height="0.348"/>
    <rect class="fil10" x="12.392" y="5.819" width="6.603" height="0.348"/>
    <rect class="fil10" x="12.392" y="4.255" width="6.603" height="0.348"/>
    <rect class="fil10" x="12.392" y="7.383" width="6.603" height="0.348"/>
    <rect class="fil10" x="12.392" y="8.947" width="6.603" height="0.348"/>
    <path class="fil11" d="M11.002 2.517l0 -1.042c0,-0.096 0.078,-0.174 0.174,-0.174l9.035 0c0.096,0 0.174,0.078 0.174,0.174l0 1.043c0.001,0.095 -0.078,0.173 -0.173,0.173l-9.036 0c-0.096,0 -0.174,-0.077 -0.174,-0.174z"/>
    <rect class="fil12" x="12.218" y="1.301" width="0.521" height="1.39"/>
    <rect class="fil12" x="18.648" y="1.301" width="0.521" height="1.39"/>
    <path class="fil11" d="M11.002 10.511l0 -1.043c0,-0.096 0.078,-0.174 0.174,-0.174l9.036 0.001c0.096,-0.001 0.173,0.077 0.174,0.173l0 1.043c-0.001,0.096 -0.078,0.174 -0.174,0.174l-9.036 0c-0.096,0 -0.174,-0.078 -0.174,-0.174l0 0z"/>
    <rect class="fil12" x="12.218" y="9.294" width="0.521" height="1.39"/>
    <rect class="fil12" x="18.648" y="9.294" width="0.521" height="1.39"/>
    <path class="fil11" d="M12.218 10.685l-1.042 0c-0.096,0 -0.174,-0.078 -0.174,-0.174l0 -9.036c0,-0.096 0.078,-0.174 0.174,-0.174l1.043 0c0.095,0 0.173,0.078 0.173,0.174l0 9.036c0,0.096 -0.078,0.174 -0.174,0.174z"/>
    <path class="fil11" d="M20.212 10.685l-1.043 -0.001c-0.096,0.001 -0.174,-0.077 -0.174,-0.173l0 -9.036c0,-0.096 0.078,-0.173 0.174,-0.174l1.042 0c0.096,0 0.174,0.078 0.174,0.174l0.001 9.036c-0.001,0.096 -0.078,0.174 -0.174,0.173l0 0.001z"/>
    <circle class="fil13" cx="11.697" cy="1.996" r="0.174"/>
    <circle class="fil13" cx="11.697" cy="9.989" r="0.174"/>
    <circle class="fil13" cx="19.69" cy="1.996" r="0.174"/>
    <circle class="fil13" cx="19.69" cy="9.989" r="0.174"/>
    <circle class="fil13" cx="18.474" cy="8.339" r="0.174"/>
    <circle class="fil13" cx="18.474" cy="6.775" r="0.174"/>
    <circle class="fil13" cx="18.474" cy="5.211" r="0.174"/>
    <circle class="fil13" cx="18.474" cy="3.647" r="0.174"/>
    <circle class="fil13" cx="13" cy="8.339" r="0.174"/>
    <circle class="fil13" cx="13" cy="6.775" r="0.174"/>
    <circle class="fil13" cx="13" cy="5.211" r="0.174"/>
    <circle class="fil13" cx="13" cy="3.647" r="0.174"/>
    <rect class="fil9" x="22.093" y="2.691" width="6.603" height="6.603"/>
    <rect class="fil10" x="22.093" y="2.691" width="6.603" height="0.348"/>
    <rect class="fil10" x="22.093" y="5.819" width="6.603" height="0.348"/>
    <rect class="fil10" x="22.093" y="4.255" width="6.603" height="0.348"/>
    <rect class="fil10" x="22.093" y="7.383" width="6.603" height="0.348"/>
    <rect class="fil10" x="22.093" y="8.947" width="6.603" height="0.348"/>
    <path class="fil11" d="M20.703 2.517l0 -1.042c0,-0.096 0.078,-0.174 0.174,-0.174l9.035 0c0.096,0 0.174,0.078 0.174,0.174l0 1.043c0,0.095 -0.078,0.173 -0.173,0.173l-9.036 0c-0.096,0 -0.174,-0.077 -0.174,-0.174z"/>
    <rect class="fil12" x="21.919" y="1.301" width="0.521" height="1.39"/>
    <rect class="fil12" x="28.348" y="1.301" width="0.521" height="1.39"/>
    <path class="fil11" d="M20.703 10.511l0 -1.043c0,-0.096 0.078,-0.174 0.174,-0.174l9.035 0.001c0.097,-0.001 0.174,0.077 0.174,0.173l0 1.043c0,0.096 -0.078,0.174 -0.174,0.174l-9.036 0c-0.095,0 -0.173,-0.078 -0.173,-0.174l0 0z"/>
    <rect class="fil12" x="21.919" y="9.294" width="0.521" height="1.39"/>
    <rect class="fil12" x="28.348" y="9.294" width="0.521" height="1.39"/>
    <path class="fil11" d="M21.919 10.685l-1.043 0c-0.095,0 -0.173,-0.078 -0.173,-0.174l0 -9.036c0,-0.096 0.078,-0.174 0.174,-0.174l1.042 0c0.096,0 0.174,0.078 0.174,0.174l0 9.036c0,0.096 -0.078,0.174 -0.174,0.174z"/>
    <path class="fil11" d="M29.912 10.685l-1.042 -0.001c-0.096,0.001 -0.174,-0.077 -0.174,-0.173l0 -9.036c0,-0.096 0.078,-0.173 0.174,-0.174l1.042 0c0.096,0 0.174,0.078 0.174,0.174l0 9.036c0,0.096 -0.078,0.174 -0.174,0.173l0 0.001z"/>
    <circle class="fil13" cx="21.398" cy="1.996" r="0.174"/>
    <circle class="fil13" cx="21.398" cy="9.989" r="0.174"/>
    <circle class="fil13" cx="29.391" cy="1.996" r="0.174"/>
    <circle class="fil13" cx="29.391" cy="9.989" r="0.174"/>
    <circle class="fil13" cx="28.175" cy="8.339" r="0.174"/>
    <circle class="fil13" cx="28.175" cy="6.775" r="0.174"/>
    <circle class="fil13" cx="28.175" cy="5.211" r="0.174"/>
    <circle class="fil13" cx="28.175" cy="3.647" r="0.174"/>
    <circle class="fil13" cx="22.701" cy="8.339" r="0.174"/>
    <circle class="fil13" cx="22.701" cy="6.775" r="0.174"/>
    <circle class="fil13" cx="22.701" cy="5.211" r="0.174"/>
    <circle class="fil13" cx="22.701" cy="3.647" r="0.174"/>
    <rect class="fil9" x="2.691" y="12.392" width="6.603" height="6.603"/>
    <rect class="fil10" x="2.691" y="12.392" width="6.603" height="0.348"/>
    <rect class="fil10" x="2.691" y="15.52" width="6.603" height="0.348"/>
    <rect class="fil10" x="2.691" y="13.956" width="6.603" height="0.348"/>
    <rect class="fil10" x="2.691" y="17.084" width="6.603" height="0.348"/>
    <rect class="fil10" x="2.691" y="18.648" width="6.603" height="0.348"/>
    <path class="fil11" d="M1.301 12.218l0 -1.042c0,-0.096 0.078,-0.174 0.174,-0.174l9.036 0c0.096,0 0.174,0.078 0.174,0.174l-0.001 1.043c0.001,0.095 -0.077,0.173 -0.173,0.173l-9.036 0c-0.096,0 -0.173,-0.078 -0.174,-0.174z"/>
    <rect class="fil12" x="2.518" y="11.002" width="0.521" height="1.39"/>
    <rect class="fil12" x="8.947" y="11.002" width="0.521" height="1.39"/>
    <path class="fil11" d="M1.302 20.212l-0.001 -1.043c0,-0.096 0.078,-0.174 0.174,-0.174l9.036 0c0.096,0 0.174,0.078 0.174,0.174l0 1.043c0,0.096 -0.078,0.174 -0.174,0.173l-9.036 0c-0.096,0 -0.174,-0.077 -0.173,-0.173l0 0z"/>
    <rect class="fil12" x="2.518" y="18.995" width="0.521" height="1.39"/>
    <rect class="fil12" x="8.947" y="18.995" width="0.521" height="1.39"/>
    <path class="fil11" d="M2.517 20.386l-1.042 -0.001c-0.096,0 -0.174,-0.077 -0.174,-0.173l0 -9.036c0,-0.096 0.078,-0.174 0.174,-0.174l1.043 0c0.096,0 0.174,0.078 0.173,0.174l0 9.036c0,0.096 -0.077,0.173 -0.174,0.174z"/>
    <path class="fil11" d="M10.511 20.385l-1.043 0c-0.096,0 -0.173,-0.077 -0.174,-0.173l0.001 -9.036c-0.001,-0.096 0.077,-0.174 0.173,-0.174l1.043 0c0.096,0 0.174,0.078 0.174,0.174l0 9.036c0,0.096 -0.078,0.174 -0.174,0.173l0 0z"/>
    <circle class="fil13" cx="1.996" cy="11.697" r="0.174"/>
    <circle class="fil13" cx="1.996" cy="19.69" r="0.174"/>
    <circle class="fil13" cx="9.99" cy="11.697" r="0.174"/>
    <circle class="fil13" cx="9.99" cy="19.69" r="0.174"/>
    <circle class="fil13" cx="8.773" cy="18.04" r="0.174"/>
    <circle class="fil13" cx="8.773" cy="16.476" r="0.174"/>
    <circle class="fil13" cx="8.773" cy="14.912" r="0.174"/>
    <circle class="fil13" cx="8.773" cy="13.348" r="0.174"/>
    <circle class="fil13" cx="3.3" cy="18.04" r="0.174"/>
    <circle class="fil13" cx="3.3" cy="16.476" r="0.174"/>
    <circle class="fil13" cx="3.3" cy="14.912" r="0.174"/>
    <circle class="fil13" cx="3.3" cy="13.348" r="0.174"/>
    <rect class="fil9" x="12.392" y="12.392" width="6.603" height="6.603"/>
    <rect class="fil10" x="12.392" y="12.392" width="6.603" height="0.348"/>
    <rect class="fil10" x="12.392" y="15.52" width="6.603" height="0.348"/>
    <rect class="fil10" x="12.392" y="13.956" width="6.603" height="0.348"/>
    <rect class="fil10" x="12.392" y="17.084" width="6.603" height="0.348"/>
    <rect class="fil10" x="12.392" y="18.648" width="6.603" height="0.348"/>
    <path class="fil11" d="M11.002 12.218l0 -1.042c0,-0.096 0.078,-0.174 0.174,-0.174l9.035 0c0.096,0 0.174,0.078 0.174,0.174l0 1.043c0.001,0.095 -0.078,0.173 -0.173,0.173l-9.036 0c-0.096,0 -0.174,-0.078 -0.174,-0.174z"/>
    <rect class="fil12" x="12.218" y="11.002" width="0.521" height="1.39"/>
    <rect class="fil12" x="18.648" y="11.002" width="0.521" height="1.39"/>
    <path class="fil11" d="M11.002 20.212l0 -1.043c0,-0.096 0.078,-0.174 0.174,-0.174l9.036 0c0.096,0 0.173,0.078 0.174,0.174l0 1.043c-0.001,0.096 -0.078,0.174 -0.174,0.173l-9.036 0c-0.096,0 -0.174,-0.077 -0.174,-0.173l0 0z"/>
    <rect class="fil12" x="12.218" y="18.995" width="0.521" height="1.39"/>
    <rect class="fil12" x="18.648" y="18.995" width="0.521" height="1.39"/>
    <path class="fil11" d="M12.218 20.386l-1.042 -0.001c-0.096,0 -0.174,-0.077 -0.174,-0.173l0 -9.036c0,-0.096 0.078,-0.174 0.174,-0.174l1.043 0c0.095,0 0.173,0.078 0.173,0.174l0 9.036c0,0.096 -0.078,0.173 -0.174,0.174z"/>
    <path class="fil11" d="M20.212 20.385l-1.043 0c-0.096,0 -0.174,-0.077 -0.174,-0.173l0 -9.036c0,-0.096 0.078,-0.174 0.174,-0.174l1.042 0c0.096,0 0.174,0.078 0.174,0.174l0.001 9.036c-0.001,0.096 -0.078,0.174 -0.174,0.173l0 0z"/>
    <circle class="fil13" cx="11.697" cy="11.697" r="0.174"/>
    <circle class="fil13" cx="11.697" cy="19.69" r="0.174"/>
    <circle class="fil13" cx="19.69" cy="11.697" r="0.174"/>
    <circle class="fil13" cx="19.69" cy="19.69" r="0.174"/>
    <circle class="fil13" cx="18.474" cy="18.04" r="0.174"/>
    <circle class="fil13" cx="18.474" cy="16.476" r="0.174"/>
    <circle class="fil13" cx="18.474" cy="14.912" r="0.174"/>
    <circle class="fil13" cx="18.474" cy="13.348" r="0.174"/>
    <circle class="fil13" cx="13" cy="18.04" r="0.174"/>
    <circle class="fil13" cx="13" cy="16.476" r="0.174"/>
    <circle class="fil13" cx="13" cy="14.912" r="0.174"/>
    <circle class="fil13" cx="13" cy="13.348" r="0.174"/>
    <rect class="fil9" x="22.093" y="12.392" width="6.603" height="6.603"/>
    <rect class="fil10" x="22.093" y="12.392" width="6.603" height="0.348"/>
    <rect class="fil10" x="22.093" y="15.52" width="6.603" height="0.348"/>
    <rect class="fil10" x="22.093" y="13.956" width="6.603" height="0.348"/>
    <rect class="fil10" x="22.093" y="17.084" width="6.603" height="0.348"/>
    <rect class="fil10" x="22.093" y="18.648" width="6.603" height="0.348"/>
    <path class="fil11" d="M20.703 12.218l0 -1.042c0,-0.096 0.078,-0.174 0.174,-0.174l9.035 0c0.096,0 0.174,0.078 0.174,0.174l0 1.043c0,0.095 -0.078,0.173 -0.173,0.173l-9.036 0c-0.096,0 -0.174,-0.078 -0.174,-0.174z"/>
    <rect class="fil12" x="21.919" y="11.002" width="0.521" height="1.39"/>
    <rect class="fil12" x="28.348" y="11.002" width="0.521" height="1.39"/>
    <path class="fil11" d="M20.703 20.212l0 -1.043c0,-0.096 0.078,-0.174 0.174,-0.174l9.035 0c0.097,0 0.174,0.078 0.174,0.174l0 1.043c0,0.096 -0.078,0.174 -0.174,0.173l-9.036 0c-0.095,0 -0.173,-0.077 -0.173,-0.173l0 0z"/>
    <rect class="fil12" x="21.919" y="18.995" width="0.521" height="1.39"/>
    <rect class="fil12" x="28.348" y="18.995" width="0.521" height="1.39"/>
    <path class="fil11" d="M21.919 20.386l-1.043 -0.001c-0.095,0 -0.173,-0.077 -0.173,-0.173l0 -9.036c0,-0.096 0.078,-0.174 0.174,-0.174l1.042 0c0.096,0 0.174,0.078 0.174,0.174l0 9.036c0,0.096 -0.078,0.173 -0.174,0.174z"/>
    <path class="fil11" d="M29.912 20.385l-1.042 0c-0.096,0 -0.174,-0.077 -0.174,-0.173l0 -9.036c0,-0.096 0.078,-0.174 0.174,-0.174l1.042 0c0.096,0 0.174,0.078 0.174,0.174l0 9.036c0,0.096 -0.078,0.174 -0.174,0.173l0 0z"/>
    <circle class="fil13" cx="21.398" cy="11.697" r="0.174"/>
    <circle class="fil13" cx="21.398" cy="19.69" r="0.174"/>
    <circle class="fil13" cx="29.391" cy="11.697" r="0.174"/>
    <circle class="fil13" cx="29.391" cy="19.69" r="0.174"/>
    <circle class="fil13" cx="28.175" cy="18.04" r="0.174"/>
    <circle class="fil13" cx="28.175" cy="16.476" r="0.174"/>
    <circle class="fil13" cx="28.175" cy="14.912" r="0.174"/>
    <circle class="fil13" cx="28.175" cy="13.348" r="0.174"/>
    <circle class="fil13" cx="22.701" cy="18.04" r="0.174"/>
    <circle class="fil13" cx="22.701" cy="16.476" r="0.174"/>
    <circle class="fil13" cx="22.701" cy="14.912" r="0.174"/>
    <circle class="fil13" cx="22.701" cy="13.348" r="0.174"/>
   </g>
  </g>
 </g>
</svg>
