<?xml version="1.0" encoding="UTF-8"?>
<!DOCTYPE svg PUBLIC "-//W3C//DTD SVG 1.1//EN" "http://www.w3.org/Graphics/SVG/1.1/DTD/svg11.dtd">
<!-- Creator: CorelDRAW 2018 -->
<svg xmlns="http://www.w3.org/2000/svg" xml:space="preserve" width="247px" height="233px" version="1.1" style="shape-rendering:geometricPrecision; text-rendering:geometricPrecision; image-rendering:optimizeQuality; fill-rule:evenodd; clip-rule:evenodd"
viewBox="0 0 73.353 69.138"
 xmlns:xlink="http://www.w3.org/1999/xlink">
 <defs>
  <style type="text/css">
   <![CDATA[
    .fil4 {fill:#5B5D6E}
    .fil7 {fill:#A2AAC2}
    .fil3 {fill:#C2A17E}
    .fil5 {fill:#C7CFE2}
    .fil6 {fill:#E64538}
    .fil2 {fill:#E6C79C}
    .fil1 {fill:#FFE5BD}
    .fil0 {fill:white}
   ]]>
  </style>
 </defs>
 <g id="Слой_x0020_1">
  <metadata id="CorelCorpID_0Corel-Layer"/>
  <g id="_678789160">
   <path class="fil0" d="M42.589 15.406c0.149,-0.023 0.301,-0.036 0.457,-0.036l16.895 0c1.595,0 2.889,1.296 2.889,2.891l0 38.615c0,0.152 -0.012,0.302 -0.035,0.448l7.669 0c1.595,0 2.889,1.294 2.889,2.889 0,1.502 -1.144,2.735 -2.609,2.876 0.128,0.427 0.197,0.88 0.197,1.348 0,2.596 -2.105,4.701 -4.701,4.701 -2.595,0 -4.7,-2.105 -4.7,-4.701 0,-0.463 0.067,-0.911 0.192,-1.335l-46.485 0c-0.768,3.452 -3.849,6.033 -7.531,6.033 -4.261,0 -7.716,-3.455 -7.716,-7.715 0,-3.683 2.581,-6.764 6.033,-7.532l0 -36.322c0,-0.52 -0.199,-1.002 -0.567,-1.37l-0.964 -0.964c-0.012,-0.012 -0.024,-0.024 -0.037,-0.037l-3.618 -3.62c-0.189,-0.189 -0.346,-0.397 -0.471,-0.619 -0.625,-1.102 -0.468,-2.527 0.471,-3.466 0.916,-0.916 2.295,-1.088 3.384,-0.517 0.253,0.132 0.49,0.305 0.702,0.517l3.62 3.62c0.005,0.005 0.009,0.009 0.014,0.014l0.985 0.985c0.889,0.889 1.536,1.961 1.905,3.13l0 -12.4c0,-1.567 1.272,-2.839 2.839,-2.839l25.454 0c1.567,0 2.839,1.272 2.839,2.839l0 12.567zm-30.776 14.68c0.04,-0.071 0.082,-0.14 0.127,-0.208 -0.045,-0.067 -0.087,-0.136 -0.127,-0.207l0 0.415z"/>
   <g>
    <g>
     <path class="fil1" d="M39.75 30.307l-25.454 0c-0.638,0 -1.157,0.518 -1.157,1.156l0 25.454c0,0.639 0.519,1.157 1.157,1.157l25.454 0c0.638,0 1.156,-0.518 1.156,-1.157l0 -25.454c0,-0.638 -0.518,-1.156 -1.156,-1.156z"/>
     <rect class="fil2" x="16.611" y="33.778" width="20.826" height="20.826"/>
     <rect class="fil3" x="16.611" y="37.248" width="20.826" height="2.313"/>
     <rect class="fil3" x="16.611" y="48.818" width="20.826" height="2.313"/>
     <rect class="fil3" x="16.611" y="43.034" width="20.826" height="2.313"/>
    </g>
    <g>
     <path class="fil1" d="M40.906 28.293l0 -25.454c0,-0.638 -0.518,-1.156 -1.156,-1.156l-25.454 0c-0.638,0 -1.157,0.518 -1.157,1.156l0 25.454c0,0.639 0.519,1.157 1.157,1.157l25.454 0c0.638,0 1.156,-0.518 1.156,-1.157z"/>
     <rect class="fil2" x="16.611" y="5.154" width="20.826" height="20.826"/>
     <rect class="fil3" x="31.651" y="5.154" width="2.313" height="20.826"/>
     <rect class="fil3" x="20.082" y="5.154" width="2.313" height="20.826"/>
     <rect class="fil3" x="25.866" y="5.154" width="2.313" height="20.826"/>
    </g>
    <circle class="fil4" cx="66.24" cy="64.437" r="3.018"/>
    <path class="fil5" d="M66.24 65.418l0 0c-0.605,0 -1.126,-0.428 -1.245,-1.02l-0.836 -4.185 4.163 0 -0.837 4.185c-0.119,0.592 -0.64,1.02 -1.245,1.02l0 0z"/>
    <path class="fil5" d="M70.464 61.42l-61.54 0c-0.668,0 -1.208,-0.539 -1.208,-1.206l0 -42.648c0,-0.966 -0.376,-1.877 -1.06,-2.56l-4.619 -4.621c-0.471,-0.471 -0.471,-1.234 0,-1.705 0.472,-0.472 1.235,-0.472 1.706,0l4.619 4.619c1.139,1.139 1.768,2.654 1.768,4.267l0 41.441 60.334 0c0.668,0 1.206,0.541 1.206,1.206 0,0.668 -0.538,1.207 -1.206,1.207l0 0z"/>
    <circle class="fil4" cx="7.716" cy="61.42" r="6.033"/>
    <circle class="fil6" cx="7.716" cy="61.42" r="3.621"/>
    <path class="fil6" d="M6.51 14.36c-0.309,0 -0.619,-0.119 -0.854,-0.354l-3.619 -3.621c-0.471,-0.471 -0.471,-1.234 0,-1.705 0.472,-0.472 1.235,-0.472 1.706,0l3.621 3.62c0.471,0.472 0.471,1.235 0,1.706 -0.236,0.235 -0.545,0.354 -0.854,0.354z"/>
    <path class="fil1" d="M61.147 56.876l0 -38.615c0,-0.668 -0.541,-1.208 -1.206,-1.208l-16.895 0c-0.666,0 -1.206,0.541 -1.206,1.208l0 38.615c0,0.665 0.54,1.206 1.206,1.206l16.895 0c0.665,0 1.206,-0.541 1.206,-1.206z"/>
    <rect class="fil2" x="45.46" y="20.674" width="12.066" height="33.787"/>
    <rect class="fil3" x="45.46" y="24.294" width="12.066" height="2.412"/>
    <rect class="fil3" x="45.46" y="30.327" width="12.066" height="2.412"/>
    <rect class="fil3" x="45.46" y="36.36" width="12.066" height="2.412"/>
    <rect class="fil3" x="45.46" y="42.395" width="12.066" height="2.412"/>
    <rect class="fil3" x="45.46" y="48.428" width="12.066" height="2.412"/>
    <circle class="fil7" cx="7.716" cy="61.42" r="1.206"/>
   </g>
  </g>
 </g>
</svg>
