<?xml version="1.0" encoding="UTF-8"?>
<!DOCTYPE svg PUBLIC "-//W3C//DTD SVG 1.1//EN" "http://www.w3.org/Graphics/SVG/1.1/DTD/svg11.dtd">
<!-- Creator: CorelDRAW 2018 -->
<svg xmlns="http://www.w3.org/2000/svg" xml:space="preserve" width="266px" height="224px" version="1.1" style="shape-rendering:geometricPrecision; text-rendering:geometricPrecision; image-rendering:optimizeQuality; fill-rule:evenodd; clip-rule:evenodd"
viewBox="0 0 48.658 40.911"
 xmlns:xlink="http://www.w3.org/1999/xlink">
 <defs>
  <style type="text/css">
   <![CDATA[
    .fil4 {fill:#24242B}
    .fil11 {fill:#2D4A75}
    .fil10 {fill:#385E96}
    .fil2 {fill:#444654}
    .fil14 {fill:#5A4650}
    .fil17 {fill:#64505A}
    .fil15 {fill:#6E5A64}
    .fil1 {fill:#707487}
    .fil8 {fill:#959CB3}
    .fil6 {fill:#AFB9D2}
    .fil19 {fill:#C73C32}
    .fil5 {fill:#C7CFE2}
    .fil16 {fill:#CCCCCC}
    .fil12 {fill:#D29B6E}
    .fil9 {fill:#E3AA75}
    .fil18 {fill:#E64538}
    .fil13 {fill:#F5B97D}
    .fil7 {fill:#FF9100}
    .fil3 {fill:#FFC300}
    .fil0 {fill:white}
   ]]>
  </style>
 </defs>
 <g id="Слой_x0020_1">
  <metadata id="CorelCorpID_0Corel-Layer"/>
  <g id="_970439584">
   <path class="fil0" d="M33.539 37.417l-4.506 0c-0.718,0 -1.327,-0.474 -1.529,-1.127l-2.528 0c-0.236,2.216 -2.112,3.943 -4.391,3.943 -2.279,0 -4.155,-1.727 -4.392,-3.943l-0.114 0c-0.884,0 -1.601,-0.717 -1.601,-1.6l0 -2.724c-0.344,-0.294 -0.563,-0.731 -0.563,-1.219l0 -13.517c0,-0.884 0.717,-1.601 1.601,-1.601l19.15 0c0.883,0 1.6,0.717 1.6,1.601l0 0.791c0.2,-0.089 0.42,-0.139 0.653,-0.139l3.659 0c1.59,0 2.953,1.136 3.237,2.701l0.7 3.853 2.01 0.574c0.929,0.266 1.569,1.115 1.569,2.081l0 1.637c0.35,0.384 0.564,0.895 0.564,1.456l0 3.942c0,0.587 -0.316,1.099 -0.786,1.378 -0.279,0.471 -0.792,0.786 -1.378,0.786l-0.678 0c-0.236,2.216 -2.113,3.943 -4.391,3.943 -2.279,0 -4.155,-1.727 -4.392,-3.943l-0.838 0c-0.202,0.653 -0.811,1.127 -1.529,1.127l-1.127 0z"/>
   <g>
    <polygon class="fil0" points="43.114,25.678 36.919,25.678 36.919,20.046 41.988,20.046 "/>
    <path class="fil1" d="M16.079 35.253l30.415 0c0.311,0 0.563,-0.252 0.563,-0.563l0 -3.943 -31.541 0 0 3.943c0,0.311 0.252,0.563 0.563,0.563z"/>
    <polygon class="fil2" points="36.919,30.747 36.919,21.735 34.666,21.735 34.666,30.747 15.516,30.747 15.516,33 47.057,33 47.057,30.747 "/>
    <path class="fil3" d="M15.516 16.666l19.15 0c0.311,0 0.563,0.252 0.563,0.564l0 13.517c0,0.311 -0.252,0.563 -0.563,0.563l-19.15 0c-0.311,0 -0.563,-0.252 -0.563,-0.563l0 -13.517c0,-0.312 0.252,-0.564 0.563,-0.564z"/>
    <path class="fil3" d="M46.24 26.008l-2.63 -0.752 -0.816 -4.488c-0.195,-1.071 -1.127,-1.849 -2.216,-1.849l-3.659 0c-0.311,0 -0.564,0.252 -0.564,0.564l0 10.138 10.702 0 0 -2.53c0,-0.503 -0.333,-0.945 -0.817,-1.083zm-7.632 -0.893c-0.622,0 -1.126,-0.504 -1.126,-1.127l0 -2.816c0,-0.311 0.252,-0.563 0.563,-0.563l3.112 0c0.272,0 0.506,0.195 0.554,0.463l0.659 3.656c0.036,0.201 -0.119,0.387 -0.324,0.387l-3.438 0 0 0z"/>
    <circle class="fil4" cx="41.425" cy="35.816" r="3.379"/>
    <circle class="fil5" cx="41.425" cy="35.816" r="2.253"/>
    <circle class="fil6" cx="41.425" cy="35.816" r="0.845"/>
    <circle class="fil4" cx="20.585" cy="35.816" r="3.379"/>
    <circle class="fil5" cx="20.585" cy="35.816" r="2.253"/>
    <circle class="fil6" cx="20.585" cy="35.816" r="0.845"/>
    <path class="fil7" d="M36.919 34.69l0.215 0c0.213,0 0.408,-0.121 0.504,-0.312l1.222 -2.445c0.191,-0.381 0.581,-0.623 1.008,-0.623l3.113 0c0.427,0 0.817,0.242 1.008,0.623l1.223 2.445c0.095,0.191 0.29,0.312 0.503,0.312l1.342 0c0.311,0 0.563,-0.252 0.563,-0.564l0 -3.942c0,-0.622 -0.504,-1.126 -1.126,-1.126l-10.139 0 0 5.068c0,0.312 0.253,0.564 0.564,0.564l0 0z"/>
    <path class="fil6" d="M34.666 36.38l-5.633 0c-0.311,0 -0.563,-0.253 -0.563,-0.564l0 -2.253c0,-0.311 0.252,-0.563 0.563,-0.563l5.633 0c0.311,0 0.563,0.252 0.563,0.563l0 2.253c0,0.311 -0.252,0.564 -0.563,0.564z"/>
    <path class="fil8" d="M30.723 34.126l0 0c-0.311,0 -0.563,0.253 -0.563,0.564l0 1.69 1.126 0 0 -1.69c0,-0.311 -0.252,-0.564 -0.563,-0.564z"/>
    <path class="fil8" d="M32.976 34.126l0 0c-0.311,0 -0.563,0.253 -0.563,0.564l0 1.69 1.126 0 0 -1.69c0,-0.311 -0.252,-0.564 -0.563,-0.564z"/>
    <path class="fil7" d="M33.539 30.184l-16.897 0c-0.311,0 -0.563,-0.252 -0.563,-0.563l0 0c0,-0.311 0.252,-0.564 0.563,-0.564l16.897 0c0.311,0 0.564,0.253 0.564,0.564l0 0c0,0.311 -0.253,0.563 -0.564,0.563z"/>
   </g>
   <path class="fil0" d="M23.037 0.159c0.893,-0.427 1.978,0.04 2.287,0.994 0.16,0.497 0.278,1.007 0.344,1.521 0.125,0.952 0.075,1.917 -0.2,2.83 1.135,0.882 1.792,2.336 1.562,3.886l-0.639 4.315c0.349,0.442 0.557,1 0.557,1.606 0,1.232 -0.86,2.263 -2.012,2.527 -0.416,2.366 -1.738,4.404 -3.585,5.761l0 1.173c0.586,0.022 1.143,0.353 1.425,0.916l0.78 1.559c0.012,0.024 0.023,0.048 0.033,0.072l0.538 0.158c0.006,0.002 0.011,0.003 0.017,0.005l4.356 1.281c2.029,0.597 3.423,2.46 3.423,4.575l0 4.67c0,1.603 -1.3,2.903 -2.903,2.903l-26.117 0c-0.763,0 -1.457,-0.295 -1.975,-0.776 -0.479,-0.444 -0.807,-1.048 -0.901,-1.727 -0.018,-0.131 -0.027,-0.264 -0.027,-0.4l0 -4.67c0,-2.115 1.394,-3.978 3.423,-4.575l4.36 -1.282c0.004,-0.002 0.009,-0.003 0.013,-0.004l0.538 -0.158c0.01,-0.024 0.021,-0.048 0.033,-0.072l0.78 -1.559c0.282,-0.563 0.839,-0.894 1.424,-0.916l0 -1.173c-0.66,-0.485 -1.252,-1.057 -1.761,-1.7 -0.914,-1.156 -1.555,-2.541 -1.823,-4.061 -1.117,-0.255 -1.959,-1.233 -2.01,-2.414 -0.005,-0.124 -0.002,-0.25 0.011,-0.377 0.011,-0.112 0.03,-0.222 0.055,-0.328 0.088,-0.376 0.257,-0.72 0.489,-1.014l-0.639 -4.315c-0.338,-2.278 1.24,-4.347 3.434,-4.701 0.684,-2.193 2.73,-3.785 5.147,-3.785l6.218 0c1.066,0 2.304,-0.167 3.25,-0.696 0.032,-0.017 0.063,-0.033 0.095,-0.049z"/>
   <g>
    <path class="fil9" d="M28.207 29.758l-6.553 -1.927c-0.794,-0.234 -1.34,-0.962 -1.34,-1.79l0 -2.957 -8.705 0 0 2.957c0,0.828 -0.546,1.556 -1.34,1.79l-6.553 1.927c-1.588,0.467 -2.679,1.925 -2.679,3.58l0 4.67c0,1.03 0.836,1.865 1.866,1.865l26.117 0c1.03,0 1.865,-0.835 1.865,-1.865l0 -4.67c0,-1.655 -1.09,-3.113 -2.678,-3.58z"/>
    <path class="fil10" d="M28.207 29.758l-6.553 -1.927c-0.111,-0.033 -0.216,-0.077 -0.316,-0.128l-5.377 0.978 -5.376 -0.978c-0.1,0.051 -0.205,0.095 -0.316,0.128l-6.553 1.927c-1.588,0.467 -2.679,1.925 -2.679,3.58l0 4.67c0,1.03 0.836,1.865 1.866,1.865l26.117 0c1.03,0 1.865,-0.835 1.865,-1.865l0 -4.67c0,-1.655 -1.09,-3.113 -2.678,-3.58l0 0z"/>
    <path class="fil11" d="M8.607 29.256l3.081 2.641c0.45,0.386 1.025,0.599 1.618,0.599 0.76,0 1.468,-0.341 1.943,-0.934l0.712 -0.891 0.713 0.891c0.474,0.593 1.183,0.934 1.943,0.934 0.593,0 1.167,-0.213 1.618,-0.599l3.081 -2.641c0.25,-0.214 0.422,-0.488 0.518,-0.784l-2.18 -0.641c-0.111,-0.033 -0.216,-0.077 -0.316,-0.128l-5.377 0.978 -5.376 -0.978c-0.1,0.051 -0.205,0.095 -0.316,0.128l-2.18 0.641c0.096,0.296 0.268,0.57 0.518,0.784l0 0z"/>
    <path class="fil12" d="M11.609 24.472c1.306,0.698 2.788,1.099 4.352,1.099 1.565,0 3.047,-0.401 4.353,-1.099l0 -1.388 -8.705 0 0 1.388z"/>
    <path class="fil13" d="M24.356 13.756l-0.311 0 0 -6.839 -16.167 0 0 6.839 -0.311 0c-0.859,0 -1.555,0.696 -1.555,1.555 0,0.859 0.696,1.555 1.555,1.555l0.342 0c0.319,4.173 3.798,7.462 8.052,7.462 4.255,0 7.734,-3.289 8.053,-7.462l0.342 0c0.859,0 1.555,-0.696 1.555,-1.555 0,-0.858 -0.696,-1.555 -1.555,-1.555l0 0z"/>
    <path class="fil9" d="M21.558 8.16l0 -1.243 -13.68 0 0 6.839 -0.223 0c-0.813,0 -1.554,0.585 -1.635,1.395 -0.093,0.93 0.635,1.715 1.546,1.715l0.343 0c0.318,4.173 3.798,7.462 8.053,7.462 0.425,0 0.84,-0.042 1.247,-0.105 -3.875,-0.598 -6.844,-3.937 -6.844,-7.979l0 -4.353c0,-1.374 1.113,-2.487 2.487,-2.487l7.462 0c0.687,0 1.244,-0.557 1.244,-1.244l0 0z"/>
    <path class="fil10" d="M15.961 28.681l-5.028 -2.794c-0.31,-0.172 -0.7,-0.051 -0.858,0.265l-0.78 1.559c-0.102,0.205 -0.052,0.452 0.121,0.601l3.081 2.641c0.534,0.457 1.341,0.381 1.78,-0.168l1.684 -2.104z"/>
    <path class="fil10" d="M15.961 28.681l5.029 -2.794c0.31,-0.172 0.7,-0.051 0.858,0.265l0.78 1.559c0.102,0.205 0.052,0.452 -0.122,0.601l-3.081 2.641c-0.534,0.457 -1.341,0.381 -1.78,-0.168l-1.684 -2.104z"/>
    <path class="fil14" d="M12.23 15.676c-0.343,0 -0.621,-0.278 -0.621,-0.622l0 -0.621c0,-0.344 0.278,-0.622 0.621,-0.622 0.344,0 0.622,0.278 0.622,0.622l0 0.621c0,0.344 -0.278,0.622 -0.622,0.622z"/>
    <path class="fil14" d="M19.692 15.676c-0.343,0 -0.622,-0.278 -0.622,-0.622l0 -0.621c0,-0.344 0.279,-0.622 0.622,-0.622 0.344,0 0.622,0.278 0.622,0.622l0 0.621c0,0.344 -0.278,0.622 -0.622,0.622z"/>
    <path class="fil15" d="M12.852 13.135l-1.243 0c-0.344,0 -0.622,-0.278 -0.622,-0.622 0,-0.344 0.278,-0.622 0.622,-0.622l1.243 0c0.344,0 0.622,0.278 0.622,0.622 0,0.344 -0.278,0.622 -0.622,0.622z"/>
    <path class="fil15" d="M20.314 13.135l-1.244 0c-0.343,0 -0.621,-0.278 -0.621,-0.622 0,-0.344 0.278,-0.622 0.621,-0.622l1.244 0c0.344,0 0.622,0.278 0.622,0.622 0,0.344 -0.278,0.622 -0.622,0.622z"/>
    <circle class="fil16" cx="15.961" cy="33.655" r="0.622"/>
    <circle class="fil16" cx="15.961" cy="37.387" r="0.622"/>
    <path class="fil14" d="M22.929 5.673l-13.935 0c-1.898,0 -3.354,1.687 -3.075,3.565l0.715 4.826 1.396 -0.173c0.623,-0.077 1.091,-0.606 1.091,-1.234l0 -3.253c0,-0.687 0.557,-1.244 1.244,-1.244l11.193 0c0.686,0 1.243,0.557 1.243,1.244l0 3.253c0,0.628 0.469,1.157 1.092,1.234l1.396 0.173 0.715 -4.826c0.279,-1.878 -1.177,-3.565 -3.076,-3.565l0.001 0z"/>
    <path class="fil17" d="M24.337 1.475c-0.119,-0.37 -0.55,-0.55 -0.889,-0.361 -0.648,0.361 -1.852,0.828 -3.756,0.828l-6.218 0c-2.404,0 -4.353,1.949 -4.353,4.353l0 0c0,1.03 0.835,1.865 1.866,1.865l9.949 0c2.337,0 4.673,-2.744 3.401,-6.685l0 0z"/>
    <path class="fil11" d="M6.634 34.277l0 0 0 5.596 -1.866 0 0 -3.731c0,-1.03 0.835,-1.865 1.866,-1.865z"/>
    <path class="fil11" d="M25.289 34.277l0 0 0 5.596 1.865 0 0 -3.731c0,-1.03 -0.835,-1.865 -1.865,-1.865z"/>
    <polygon class="fil18" points="6.634,39.873 9.121,39.873 9.121,28.168 6.634,28.9 "/>
    <polygon class="fil18" points="25.289,39.873 22.801,39.873 22.801,28.168 25.289,28.9 "/>
    <path class="fil19" d="M6.634 39.873l1.244 0 0 -4.352c0,-0.687 -0.557,-1.244 -1.244,-1.244l0 0 0 5.596z"/>
    <path class="fil19" d="M25.289 39.873l-1.244 0 0 -4.352c0,-0.687 0.557,-1.244 1.244,-1.244l0 0 0 5.596z"/>
    <path class="fil15" d="M12.823 4.11c0.009,0.881 0.79,1.563 1.672,1.563l8.434 0c0.447,0 0.869,0.097 1.25,0.264 0.566,-1.15 0.733,-2.682 0.158,-4.465 -0.12,-0.368 -0.55,-0.547 -0.887,-0.359 -0.648,0.362 -1.853,0.829 -3.758,0.829l-6.218 0c-0.039,0.023 -0.083,0.049 -0.122,0.071 -0.336,0.618 -0.529,1.324 -0.529,2.077 0,0.006 0,0.013 0,0.02l0 0z"/>
   </g>
  </g>
 </g>
</svg>
