<?xml version="1.0" encoding="UTF-8"?>
<!DOCTYPE svg PUBLIC "-//W3C//DTD SVG 1.1//EN" "http://www.w3.org/Graphics/SVG/1.1/DTD/svg11.dtd">
<!-- Creator: CorelDRAW 2018 -->
<svg xmlns="http://www.w3.org/2000/svg" xml:space="preserve" width="310px" height="224px" version="1.1" style="shape-rendering:geometricPrecision; text-rendering:geometricPrecision; image-rendering:optimizeQuality; fill-rule:evenodd; clip-rule:evenodd"
viewBox="0 0 392.181 282.997"
 xmlns:xlink="http://www.w3.org/1999/xlink">
 <defs>
  <style type="text/css">
   <![CDATA[
    .fil2 {fill:#444654}
    .fil4 {fill:#707487}
    .fil8 {fill:#B9BBC1}
    .fil10 {fill:#C2A17E}
    .fil3 {fill:#C7CFE2}
    .fil13 {fill:#D2B493}
    .fil14 {fill:#E64538}
    .fil9 {fill:#E6C79C}
    .fil12 {fill:#EBD2AF}
    .fil11 {fill:#FFE5BD}
    .fil1 {fill:white}
    .fil0 {fill:white}
    .fil7 {fill:#385E96;fill-rule:nonzero}
    .fil6 {fill:#B4B4B4;fill-rule:nonzero}
    .fil5 {fill:#E64538;fill-rule:nonzero}
   ]]>
  </style>
 </defs>
 <g id="Слой_x0020_1">
  <metadata id="CorelCorpID_0Corel-Layer"/>
  <g id="_678775216">
   <path class="fil0" d="M382.889 245.677c5.314,1.154 9.292,5.887 9.292,11.546 0,14.217 -11.557,25.774 -25.775,25.774l-260.237 0c-14.217,0 -25.774,-11.557 -25.774,-25.774 0,-5.659 3.978,-10.392 9.292,-11.547l0 -157.653c0,-15.751 12.832,-28.529 28.574,-28.529l236.044 0c15.743,0 28.584,12.774 28.584,28.529l0 157.654z"/>
   <g>
    <rect class="fil1" x="115.447" y="85.254" width="241.687" height="148.729"/>
    <path class="fil2" d="M354.305 66.659l-236.044 0c-11.806,0 -21.409,9.583 -21.409,21.364l0 169.2c0,2.568 2.078,4.646 4.651,4.646l269.57 0c2.572,0 4.651,-2.078 4.651,-4.646l0 -169.2c0,-11.781 -9.609,-21.364 -21.419,-21.364l0 0zm-238.859 162.677l0 -139.437c0,-2.567 2.079,-4.646 4.647,-4.646l232.39 0c2.568,0 4.646,2.079 4.646,4.646l0 139.437c0,2.567 -2.078,4.646 -4.646,4.646l-232.39 0c-2.568,0 -4.647,-2.079 -4.647,-4.646z"/>
    <path class="fil3" d="M380.37 252.572l-288.165 0c-2.567,0 -4.646,2.078 -4.646,4.651l0 0c0,10.261 8.345,18.61 18.61,18.61l260.238 0c10.265,0 18.609,-8.349 18.609,-18.61l0 0c0,-2.572 -2.079,-4.651 -4.646,-4.651l0 0z"/>
    <path class="fil4" d="M217.698 261.869l37.18 0c5.135,0 9.297,-4.162 9.297,-9.297l-55.775 0c0,5.135 4.163,9.297 9.298,9.297l0 0z"/>
    <path class="fil5" d="M264.723 105.483l0 -4.617 4.977 0 0 4.617 -4.977 0zm0 21.404l0 -18.862 4.977 0 0 18.862 -4.977 0zm25.231 0l-4.977 0 0 -9.614c0,-2.034 -0.109,-3.347 -0.321,-3.94 -0.217,-0.602 -0.563,-1.061 -1.052,-1.392 -0.484,-0.336 -1.061,-0.499 -1.743,-0.499 -0.869,0 -1.654,0.237 -2.345,0.706 -0.696,0.474 -1.165,1.106 -1.422,1.881 -0.262,0.78 -0.385,2.222 -0.385,4.331l0 8.526 -4.982 0 0 -18.861 4.617 0 0 2.77c1.654,-2.113 3.732,-3.17 6.245,-3.17 1.102,0 2.114,0.203 3.027,0.593 0.924,0.4 1.61,0.903 2.079,1.515 0.474,0.618 0.8,1.314 0.982,2.094 0.188,0.785 0.277,1.901 0.277,3.353l0 11.706 0 0.001zm2.059 -18.862l2.76 0 0 -1.421c0,-1.59 0.168,-2.776 0.509,-3.555 0.34,-0.79 0.962,-1.427 1.871,-1.916 0.913,-0.489 2.064,-0.741 3.461,-0.741 1.422,0 2.819,0.212 4.187,0.637l-0.632 3.466c-0.814,-0.187 -1.595,-0.286 -2.345,-0.286 -0.741,0 -1.264,0.173 -1.585,0.509 -0.321,0.34 -0.489,0.997 -0.489,1.964l0 1.343 3.748 0 0 3.926 -3.748 0 0 14.936 -4.977 0 0 -14.936 -2.76 0 0 -3.926 0 0zm12.309 9.199c0,-1.659 0.405,-3.264 1.225,-4.814 0.814,-1.555 1.975,-2.735 3.471,-3.555 1.496,-0.815 3.16,-1.229 5.006,-1.229 2.854,0 5.185,0.928 7.012,2.779 1.822,1.862 2.73,4.197 2.73,7.032 0,2.859 -0.923,5.228 -2.755,7.105 -1.841,1.881 -3.347,2.819 -6.142,2.819 -1.723,0 -4.182,-0.395 -5.747,-1.175 -1.566,-0.78 -2.761,-1.926 -3.575,-3.441 -0.82,-1.506 -1.225,-3.348 -1.225,-5.521l0 0zm5.125 0.267c0,1.871 0.44,3.308 1.329,4.3 0.888,1.003 1.979,1.497 3.278,1.497 1.299,0 2.39,-0.494 3.269,-1.497 0.874,-0.992 1.318,-2.438 1.318,-4.335 0,-1.846 -0.444,-3.268 -1.318,-4.266 -0.879,-0.997 -1.97,-1.496 -3.269,-1.496 -1.299,0 -2.39,0.499 -3.278,1.496 -0.889,0.998 -1.329,2.429 -1.329,4.301z"/>
    <path class="fil6" d="M323.865 126.887l0 -2.261 2.266 0 0 2.261 -2.266 0zm4.508 0l0 -11.83 2.266 0 0 4.265c0.697,-0.794 1.526,-1.194 2.484,-1.194 1.042,0 1.906,0.38 2.587,1.135 0.681,0.761 1.027,1.847 1.027,3.264 0,1.467 -0.351,2.597 -1.047,3.388 -0.696,0.789 -1.545,1.19 -2.537,1.19 -0.489,0 -0.973,-0.129 -1.452,-0.381 -0.474,-0.252 -0.884,-0.617 -1.23,-1.096l0 1.259 -2.098 0 0 0zm2.232 -4.454c0,0.889 0.138,1.551 0.419,1.975 0.395,0.607 0.914,0.909 1.57,0.909 0.499,0 0.929,-0.212 1.284,-0.642 0.351,-0.43 0.528,-1.111 0.528,-2.034 0,-0.983 -0.182,-1.689 -0.538,-2.124 -0.35,-0.434 -0.804,-0.651 -1.362,-0.651 -0.548,0 -0.998,0.212 -1.358,0.636 -0.36,0.42 -0.543,1.067 -0.543,1.931zm6.873 -4.123l2.409 0 2.059 6.083 2.01 -6.083 2.345 0 -3.027 8.256 -0.543 1.491c-0.202,0.499 -0.39,0.879 -0.573,1.141 -0.177,0.262 -0.389,0.479 -0.622,0.642 -0.237,0.163 -0.523,0.291 -0.869,0.38 -0.34,0.089 -0.73,0.138 -1.16,0.138 -0.434,0 -0.864,-0.049 -1.288,-0.138l-0.198 -1.767c0.356,0.069 0.677,0.103 0.963,0.103 0.528,0 0.923,-0.153 1.175,-0.464 0.252,-0.311 0.449,-0.711 0.583,-1.19l-3.264 -8.592 0 0z"/>
    <path class="fil7" d="M180.627 126.995l0 -21.739 -7.747 0 0 -4.425 20.757 0 0 4.425 -7.712 0 0 21.739 -5.298 0zm17.889 0l-5.007 0 0 -18.965 4.641 0 0 2.691c0.8,-1.274 1.516,-2.108 2.158,-2.503 0.637,-0.395 1.363,-0.588 2.172,-0.588 1.146,0 2.247,0.317 3.309,0.943l-1.556 4.37c-0.844,-0.548 -1.629,-0.819 -2.355,-0.819 -0.706,0 -1.304,0.192 -1.792,0.577 -0.484,0.39 -0.869,1.087 -1.151,2.094 -0.281,1.012 -0.419,3.13 -0.419,6.354l0 5.847 0 -0.001zm12.61 -13.118l-4.532 -0.805c0.513,-1.852 1.397,-3.22 2.641,-4.108 1.249,-0.889 3.106,-1.334 5.57,-1.334 2.231,0 3.9,0.262 4.996,0.791 1.092,0.528 1.867,1.199 2.311,2.014 0.445,0.819 0.672,2.311 0.672,4.488l-0.074 5.846c0,1.664 0.079,2.894 0.237,3.689 0.158,0.789 0.454,1.634 0.894,2.537l-4.967 0c-0.129,-0.33 -0.297,-0.814 -0.484,-1.461 -0.079,-0.297 -0.139,-0.494 -0.178,-0.583 -0.849,0.84 -1.763,1.466 -2.74,1.886 -0.973,0.42 -2.01,0.632 -3.111,0.632 -1.94,0 -3.476,-0.528 -4.597,-1.59 -1.121,-1.052 -1.683,-2.389 -1.683,-4.014 0,-1.061 0.256,-2.019 0.77,-2.859 0.508,-0.834 1.224,-1.481 2.148,-1.925 0.923,-0.445 2.246,-0.835 3.984,-1.171 2.341,-0.439 3.965,-0.854 4.864,-1.229l0 -0.504c0,-0.977 -0.237,-1.668 -0.711,-2.088 -0.479,-0.415 -1.383,-0.622 -2.706,-0.622 -0.894,0 -1.585,0.172 -2.089,0.533 -0.503,0.355 -0.903,0.983 -1.214,1.876l-0.001 0.001zm6.72 4.058c-0.637,0.212 -1.654,0.469 -3.047,0.765 -1.392,0.296 -2.305,0.593 -2.73,0.869 -0.652,0.469 -0.983,1.057 -0.983,1.768 0,0.706 0.262,1.308 0.786,1.822 0.528,0.513 1.19,0.765 1.999,0.765 0.904,0 1.768,-0.296 2.587,-0.889 0.603,-0.454 1.008,-1.002 1.195,-1.659 0.128,-0.43 0.193,-1.244 0.193,-2.444l0 -0.997 0 0zm25.108 9.06l-5.007 0 0 -9.662c0,-2.049 -0.109,-3.373 -0.321,-3.965 -0.222,-0.607 -0.568,-1.066 -1.052,-1.402 -0.488,-0.336 -1.076,-0.499 -1.758,-0.499 -0.874,0 -1.658,0.237 -2.355,0.711 -0.701,0.474 -1.175,1.111 -1.432,1.886 -0.262,0.79 -0.39,2.237 -0.39,4.355l0 8.576 -5.006 0 0 -18.965 4.641 0 0 2.785c1.664,-2.128 3.752,-3.185 6.28,-3.185 1.106,0 2.123,0.198 3.047,0.598 0.923,0.4 1.619,0.903 2.088,1.52 0.474,0.622 0.8,1.323 0.983,2.109 0.192,0.785 0.281,1.906 0.281,3.367l0 11.771 0.001 0zm1.999 -5.332l5.047 -0.77c0.212,0.967 0.641,1.703 1.298,2.207 0.652,0.503 1.575,0.755 2.75,0.755 1.294,0 2.271,-0.242 2.928,-0.716 0.44,-0.335 0.657,-0.785 0.657,-1.343 0,-0.38 -0.119,-0.696 -0.36,-0.948 -0.248,-0.237 -0.81,-0.459 -1.674,-0.661 -4.049,-0.894 -6.612,-1.714 -7.698,-2.449 -1.501,-1.027 -2.251,-2.454 -2.251,-4.276 0,-1.649 0.651,-3.031 1.95,-4.152 1.293,-1.121 3.303,-1.679 6.029,-1.679 2.592,0 4.522,0.424 5.782,1.269 1.264,0.854 2.132,2.108 2.606,3.772l-4.71 0.879c-0.202,-0.746 -0.592,-1.319 -1.16,-1.714 -0.563,-0.395 -1.373,-0.592 -2.429,-0.592 -1.329,0 -2.277,0.182 -2.854,0.558 -0.386,0.261 -0.573,0.602 -0.573,1.017 0,0.355 0.163,0.662 0.499,0.913 0.454,0.331 2.019,0.8 4.7,1.412 2.682,0.608 4.548,1.353 5.61,2.232 1.051,0.894 1.579,2.138 1.579,3.738 0,1.733 -0.725,3.229 -2.182,4.478 -1.452,1.249 -3.599,1.876 -6.448,1.876 -2.583,0 -4.632,-0.523 -6.143,-1.565 -1.501,-1.042 -2.488,-2.454 -2.952,-4.241l-0.001 0z"/>
    <path class="fil8" d="M219.12 222.428l-72.952 0c-2.37,0 -4.291,-1.921 -4.291,-4.291l0 -68.661c0,-2.37 1.921,-4.296 4.291,-4.296l72.952 0c2.37,0 4.291,1.926 4.291,4.296l0 68.661c0,2.37 -1.921,4.291 -4.291,4.291z"/>
    <path class="fil8" d="M274.909 188.098l-34.33 0c-2.37,0 -4.291,-1.921 -4.291,-4.291 0,-2.375 1.921,-4.291 4.291,-4.291l34.33 0c2.375,0 4.291,1.915 4.291,4.291 0,2.37 -1.916,4.291 -4.291,4.291z"/>
    <path class="fil8" d="M274.909 205.265l-34.33 0c-2.37,0 -4.291,-1.921 -4.291,-4.295 0,-2.37 1.921,-4.291 4.291,-4.291l34.33 0c2.375,0 4.291,1.921 4.291,4.291 0,2.374 -1.916,4.295 -4.291,4.295z"/>
    <path class="fil8" d="M274.909 222.428l-34.33 0c-2.37,0 -4.291,-1.921 -4.291,-4.291 0,-2.37 1.921,-4.29 4.291,-4.29l34.33 0c2.375,0 4.291,1.92 4.291,4.29 0,2.37 -1.916,4.291 -4.291,4.291z"/>
    <path class="fil8" d="M326.407 188.098l-34.33 0c-2.375,0 -4.291,-1.921 -4.291,-4.291 0,-2.375 1.916,-4.291 4.291,-4.291l34.33 0c2.371,0 4.291,1.915 4.291,4.291 0,2.37 -1.92,4.291 -4.291,4.291z"/>
    <path class="fil8" d="M326.407 205.265l-34.33 0c-2.375,0 -4.291,-1.921 -4.291,-4.295 0,-2.37 1.916,-4.291 4.291,-4.291l34.33 0c2.371,0 4.291,1.921 4.291,4.291 0,2.374 -1.92,4.295 -4.291,4.295z"/>
    <path class="fil8" d="M326.407 222.428l-34.33 0c-2.375,0 -4.291,-1.921 -4.291,-4.291 0,-2.37 1.916,-4.29 4.291,-4.29l34.33 0c2.371,0 4.291,1.92 4.291,4.29 0,2.37 -1.92,4.291 -4.291,4.291z"/>
    <path class="fil8" d="M274.909 155.396l-34.33 0c-2.37,0 -4.291,-1.921 -4.291,-4.291 0,-2.375 1.921,-4.29 4.291,-4.29l34.33 0c2.375,0 4.291,1.915 4.291,4.29 0,2.37 -1.916,4.291 -4.291,4.291z"/>
    <path class="fil8" d="M274.909 172.564l-34.33 0c-2.37,0 -4.291,-1.921 -4.291,-4.291 0,-2.375 1.921,-4.295 4.291,-4.295l34.33 0c2.375,0 4.291,1.92 4.291,4.295 0,2.37 -1.916,4.291 -4.291,4.291z"/>
    <path class="fil8" d="M326.407 155.396l-34.33 0c-2.375,0 -4.291,-1.921 -4.291,-4.291 0,-2.375 1.916,-4.29 4.291,-4.29l34.33 0c2.371,0 4.291,1.915 4.291,4.29 0,2.37 -1.92,4.291 -4.291,4.291z"/>
    <path class="fil8" d="M326.407 172.564l-34.33 0c-2.375,0 -4.291,-1.921 -4.291,-4.291 0,-2.375 1.916,-4.295 4.291,-4.295l34.33 0c2.371,0 4.291,1.92 4.291,4.295 0,2.37 -1.92,4.291 -4.291,4.291z"/>
   </g>
   <path class="fil0" d="M92.491 7.949c0.042,-0.025 0.085,-0.05 0.127,-0.075l11.469 -6.621c4.475,-2.583 10.222,-1.041 12.804,3.433l50.684 87.781c0.03,0.05 0.06,0.101 0.089,0.151l6.622 11.47c2.583,4.474 1.041,10.221 -3.433,12.803l-11.369 6.564c-0.033,0.02 -0.067,0.04 -0.101,0.06l-5.735 3.31c-0.028,0.017 -0.057,0.033 -0.086,0.049l-64.846 37.44c-0.021,0.012 -0.042,0.025 -0.064,0.037l-5.622 3.246c-0.038,0.023 -0.077,0.045 -0.115,0.067l-11.47 6.621c-4.215,2.434 -9.553,1.207 -12.318,-2.683 -0.169,-0.24 -0.329,-0.489 -0.479,-0.748l-6.626 -11.469c-0.042,-0.073 -0.082,-0.145 -0.122,-0.218l-43.954 -76.129c-0.024,-0.04 -0.048,-0.082 -0.072,-0.123l-6.621 -11.47c-2.319,-4.016 -1.315,-9.051 2.15,-11.909 0.395,-0.326 0.822,-0.623 1.28,-0.888l11.47 -6.626c0.047,-0.028 0.095,-0.054 0.142,-0.081l5.592 -3.229c0.048,-0.028 0.097,-0.054 0.145,-0.081l70.459 -40.682z"/>
   <g>
    <rect class="fil9" transform="matrix(0.0192165 -0.0110947 0.0110946 0.0192165 30.4767 72.4174)" width="3780.237" height="3780.237"/>
    <rect class="fil10" transform="matrix(0.0192165 -0.0110947 0.0110946 0.0192165 30.4767 72.4174)" width="3780.237" height="198.959"/>
    <rect class="fil10" transform="matrix(0.0192165 -0.0110947 0.0110946 0.0192165 50.3434 106.827)" width="3780.237" height="198.959"/>
    <rect class="fil10" transform="matrix(0.0192165 -0.0110947 0.0110946 0.0192165 40.41 89.6223)" width="3780.237" height="198.959"/>
    <rect class="fil10" transform="matrix(0.0192165 -0.0110947 0.0110946 0.0192165 60.2765 124.032)" width="3780.237" height="198.959"/>
    <rect class="fil10" transform="matrix(0.0192165 -0.0110947 0.0110946 0.0192165 70.2098 141.237)" width="3780.237" height="198.959"/>
    <path class="fil11" d="M14.079 79.333l-6.621 -11.469c-0.608,-1.052 -0.247,-2.405 0.81,-3.012l99.402 -57.394c1.057,-0.608 2.409,-0.247 3.017,0.81l6.621 11.469c0.612,1.052 0.247,2.405 -0.805,3.012l-99.407 57.394c-1.057,0.607 -2.405,0.247 -3.017,-0.81z"/>
    <rect class="fil12" transform="matrix(0.0192165 -0.0110947 0.0110946 0.0192165 19.7354 58.2279)" width="298.433" height="795.843"/>
    <rect class="fil12" transform="matrix(0.0192165 -0.0110947 0.0110946 0.0192165 90.467 17.3909)" width="298.433" height="795.843"/>
    <path class="fil11" d="M64.852 167.271l-6.627 -11.47c-0.607,-1.056 -0.246,-2.404 0.81,-3.017l99.408 -57.389c1.057,-0.612 2.405,-0.246 3.017,0.805l6.621 11.47c0.608,1.057 0.247,2.409 -0.81,3.017l-99.407 57.394c-1.052,0.607 -2.405,0.246 -3.012,-0.81l0 0z"/>
    <rect class="fil12" transform="matrix(0.0192165 -0.0110947 0.0110946 0.0192165 70.5056 146.164)" width="298.433" height="795.843"/>
    <rect class="fil12" transform="matrix(0.0192165 -0.0110947 0.0110946 0.0192165 141.237 105.327)" width="298.433" height="795.843"/>
    <path class="fil11" d="M79.333 161.46l-11.469 6.621c-1.052,0.607 -2.405,0.247 -3.012,-0.81l-57.394 -99.407c-0.608,-1.052 -0.247,-2.405 0.81,-3.012l11.469 -6.627c1.052,-0.607 2.405,-0.246 3.012,0.81l57.394 99.408c0.607,1.057 0.247,2.404 -0.81,3.017z"/>
    <path class="fil11" d="M167.271 110.687l-11.47 6.621c-1.057,0.612 -2.404,0.247 -3.017,-0.805l-57.389 -99.407c-0.612,-1.057 -0.247,-2.405 0.805,-3.017l11.47 -6.621c1.057,-0.608 2.409,-0.247 3.017,0.81l57.394 99.402c0.607,1.057 0.246,2.409 -0.81,3.017l0 0z"/>
    <circle class="fil13" transform="matrix(0.0192165 -0.0110947 0.0110946 0.0192165 18.4153 69.1853)" r="99.473"/>
    <circle class="fil13" transform="matrix(0.0192165 -0.0110947 0.0110946 0.0192165 69.1853 157.122)" r="99.473"/>
    <circle class="fil13" transform="matrix(0.0192165 -0.0110947 0.0110946 0.0192165 106.352 18.4154)" r="99.473"/>
    <circle class="fil13" transform="matrix(0.0192165 -0.0110947 0.0110946 0.0192165 157.122 106.352)" r="99.473"/>
    <circle class="fil13" transform="matrix(0.0192165 -0.0110947 0.0110946 0.0192165 133.255 95.9166)" r="99.473"/>
    <circle class="fil13" transform="matrix(0.0192165 -0.0110947 0.0110946 0.0192165 123.322 78.7118)" r="99.473"/>
    <circle class="fil13" transform="matrix(0.0192165 -0.0110947 0.0110946 0.0192165 113.389 61.5069)" r="99.473"/>
    <circle class="fil13" transform="matrix(0.0192165 -0.0110947 0.0110946 0.0192165 103.455 44.3019)" r="99.473"/>
    <circle class="fil13" transform="matrix(0.0192165 -0.0110947 0.0110946 0.0192165 73.0375 130.683)" r="99.473"/>
    <circle class="fil13" transform="matrix(0.0192165 -0.0110947 0.0110946 0.0192165 63.1042 113.478)" r="99.473"/>
    <circle class="fil13" transform="matrix(0.0192165 -0.0110947 0.0110946 0.0192165 53.1711 96.2731)" r="99.473"/>
    <circle class="fil13" transform="matrix(0.0192165 -0.0110947 0.0110946 0.0192165 43.2379 79.0683)" r="99.473"/>
   </g>
   <path class="fil0" d="M75.118 134.28c0.17,-0.412 0.356,-0.821 0.535,-1.229 0.233,-0.533 0.471,-1.063 0.715,-1.592 0.382,-0.828 0.843,-1.619 1.394,-2.347 1.682,-2.295 4.224,-3.717 7.111,-3.717 2.547,0 4.929,1.049 6.591,2.993 1.409,1.648 2.134,3.711 2.134,5.876 0,0.769 -0.087,1.542 -0.195,2.302 -0.018,0.125 -0.038,0.254 -0.051,0.381 -0.003,0.091 -0.008,0.181 -0.015,0.278 -0.134,1.818 -0.228,3.648 -0.228,5.472 0,2.423 0.171,4.918 0.689,7.29 0.366,1.675 0.891,3.403 1.697,4.923 0.582,1.099 1.327,2.052 2.266,2.867 1.075,0.933 2.252,1.721 3.536,2.335 1.501,0.718 3.187,1.186 4.814,1.515 2.19,0.444 4.407,0.753 6.635,0.925 2.657,0.206 5.335,0.27 7.999,0.27l3.752 0 0 -5.313c0,-2.759 1.076,-5.307 3.026,-7.257 1.95,-1.951 4.499,-3.028 7.259,-3.028 2.759,0 5.308,1.077 7.258,3.027l24.954 24.954c1.95,1.951 3.027,4.499 3.027,7.259 0,2.759 -1.077,5.308 -3.027,7.258l-24.954 24.954c-1.95,1.95 -4.499,3.027 -7.258,3.027 -2.76,0 -5.31,-1.077 -7.259,-3.027 -1.95,-1.95 -3.026,-4.499 -3.026,-7.258l0 -5.313 -3.752 0c-19.128,0 -41.358,-4.313 -49.297,-24.143 -2.371,-5.92 -3.096,-12.557 -3.096,-18.893 0,-8.133 3.491,-17.431 6.766,-24.789z"/>
   <path class="fil14" d="M78.099 175.3c5.263,13.094 19.478,19.641 42.646,19.641l10.916 0 0 12.477c0,0.845 0.311,1.575 0.928,2.192 0.618,0.617 1.348,0.928 2.193,0.928 0.844,0 1.575,-0.311 2.192,-0.928l24.954 -24.954c0.617,-0.617 0.928,-1.348 0.928,-2.192 0,-0.845 -0.311,-1.575 -0.928,-2.193l-24.954 -24.954c-0.617,-0.617 -1.348,-0.928 -2.192,-0.928 -0.845,0 -1.575,0.311 -2.193,0.928 -0.617,0.617 -0.928,1.348 -0.928,2.192l0 12.477 -10.916 0c-3.18,0 -6.034,-0.093 -8.552,-0.291 -2.519,-0.192 -5.022,-0.543 -7.506,-1.047 -2.483,-0.503 -4.646,-1.194 -6.482,-2.073 -1.837,-0.879 -3.551,-2.005 -5.141,-3.387 -1.594,-1.383 -2.893,-3.022 -3.9,-4.923 -1.007,-1.901 -1.798,-4.148 -2.365,-6.75 -0.568,-2.597 -0.854,-5.54 -0.854,-8.818 0,-1.788 0.083,-3.787 0.246,-6 0,-0.192 0.04,-0.572 0.119,-1.145 0.084,-0.568 0.123,-0.997 0.123,-1.289 0,-0.488 -0.138,-0.893 -0.415,-1.219 -0.276,-0.321 -0.656,-0.484 -1.145,-0.484 -0.518,0 -0.973,0.276 -1.363,0.829 -0.227,0.291 -0.439,0.647 -0.636,1.072 -0.193,0.419 -0.415,0.908 -0.657,1.461 -0.242,0.553 -0.415,0.938 -0.509,1.17 -4.128,9.258 -6.192,16.586 -6.192,21.977 0,6.464 0.86,11.875 2.583,16.23l0 0.001z"/>
  </g>
 </g>
</svg>
