<?xml version="1.0" encoding="UTF-8"?>
<!DOCTYPE svg PUBLIC "-//W3C//DTD SVG 1.1//EN" "http://www.w3.org/Graphics/SVG/1.1/DTD/svg11.dtd">
<!-- Creator: CorelDRAW 2018 -->
<svg xmlns="http://www.w3.org/2000/svg" xml:space="preserve" width="364px" height="224px" version="1.1" style="shape-rendering:geometricPrecision; text-rendering:geometricPrecision; image-rendering:optimizeQuality; fill-rule:evenodd; clip-rule:evenodd"
viewBox="0 0 42.573 26.168"
 xmlns:xlink="http://www.w3.org/1999/xlink">
 <defs>
  <style type="text/css">
   <![CDATA[
    .fil9 {fill:#305182}
    .fil8 {fill:#385E96}
    .fil0 {fill:#A8E6C5}
    .fil7 {fill:#C4392F}
    .fil3 {fill:#D37D42}
    .fil5 {fill:#E59F6A}
    .fil6 {fill:#E64538}
    .fil10 {fill:#EBEEF2}
    .fil2 {fill:#F29F5C}
    .fil4 {fill:#F9C295}
    .fil1 {fill:white}
   ]]>
  </style>
 </defs>
 <g id="Слой_x0020_1">
  <metadata id="CorelCorpID_0Corel-Layer"/>
  <g id="_877026520">
   <path class="fil0" d="M20.887 9.976l-1.169 1.522c-1.188,1.546 -3.253,2.136 -5.078,1.445l-0.173 -0.066c-0.964,-0.365 -1.371,-1.509 -0.853,-2.401l4.236 -7.292c0.481,-0.826 1.331,-1.37 2.283,-1.458l6.011 -0.556c0.595,-0.055 1.201,0.074 1.722,0.367l3.806 2.143c0.161,0.091 0.267,0.227 0.315,0.405 0.048,0.178 0.025,0.349 -0.069,0.508l-2.334 3.967c-0.018,0.03 -0.035,0.055 -0.057,0.082 -0.897,1.102 -2.025,2.105 -3.395,2.559 -0.995,0.329 -2.015,0.333 -3.014,0.024 -0.746,-0.23 -1.575,-0.694 -2.231,-1.249z"/>
   <path class="fil1" d="M32.185 16.892l-7.058 5.497 -0.847 0.739c-0.957,0.835 -2.418,0.746 -3.268,-0.189l-0.223 -0.192c-0.237,0.119 -0.494,0.197 -0.761,0.23 -0.77,0.095 -1.54,-0.199 -2.051,-0.786l-0.793 -0.91c-0.217,0.099 -0.449,0.166 -0.689,0.195 -0.77,0.095 -1.54,-0.2 -2.05,-0.785l-0.795 -0.912c-0.917,0.418 -2.044,0.208 -2.738,-0.589l-0.309 -0.355c-0.711,-0.815 -0.626,-2.066 0.191,-2.776 0.002,-0.001 0.003,-0.003 0.005,-0.004l3.049 -2.601 0.649 -0.566 -0.03 -0.011c-0.964,-0.366 -1.371,-1.509 -0.853,-2.401l4.236 -7.292c0.481,-0.826 1.331,-1.37 2.283,-1.458l6.011 -0.556c0.595,-0.055 1.201,0.074 1.722,0.367l3.619 2.037 1.744 -0.215c0.362,-0.044 0.694,0.215 0.739,0.577l1.503 12.21c0.024,0.195 -0.031,0.372 -0.161,0.52 -0.131,0.147 -0.3,0.223 -0.496,0.224l-2.629 0.002z"/>
   <path class="fil2" d="M34.358 12.528l-1.048 -8.511 -1.963 0.242 0 -0.002 -3.806 -2.142c-0.406,-0.229 -0.872,-0.328 -1.336,-0.285l-6.011 0.556c-0.738,0.068 -1.398,0.489 -1.771,1.131l-4.236 7.292c-0.313,0.538 -0.068,1.228 0.515,1.448l0.173 0.066c0.333,0.126 0.676,0.199 1.019,0.227l-0.537 0.468 -1.074 0.935 -3.054 2.606c-0.544,0.473 -0.601,1.297 -0.127,1.841l0.31 0.355c0.608,0.698 1.667,0.77 2.365,0.162l1.168 1.339c0.38,0.435 0.936,0.628 1.469,0.562 0.322,-0.039 0.635,-0.172 0.896,-0.401l1.167 1.339c0.381,0.437 0.937,0.629 1.47,0.563 0.322,-0.04 0.635,-0.172 0.896,-0.4l0.634 0.547c0.609,0.699 1.669,0.771 2.367,0.163l0.862 -0.752 7.242 -5.64 0.008 -0.007 2.857 -0.003 -0.455 -3.699 0 0z"/>
   <path class="fil3" d="M31.254 14.037l-0.008 0.007 -7.242 5.641 -0.862 0.751c-0.698,0.609 -1.758,0.536 -2.366,-0.162l-0.634 -0.548c-0.262,0.229 -0.575,0.361 -0.896,0.4 -0.534,0.066 -1.09,-0.126 -1.471,-0.563l-1.166 -1.339c-0.262,0.229 -0.575,0.362 -0.896,0.402 -0.534,0.066 -1.09,-0.127 -1.47,-0.563l-1.167 -1.339c-0.598,0.521 -1.46,0.541 -2.077,0.099 -0.317,0.477 -0.292,1.124 0.103,1.577l0.31 0.355c0.609,0.698 1.667,0.77 2.366,0.162l1.167 1.339c0.38,0.435 0.936,0.628 1.47,0.563 0.321,-0.04 0.634,-0.173 0.896,-0.401l1.166 1.338c0.381,0.437 0.937,0.629 1.471,0.563 0.321,-0.04 0.634,-0.171 0.896,-0.4l0.634 0.547c0.608,0.7 1.668,0.771 2.367,0.163l0.861 -0.751 7.242 -5.64 0.008 -0.008 2.857 -0.003 -0.316 -2.568 -3.243 0.378z"/>
   <path class="fil1" d="M30.169 20.952l-0.79 0.917c-0.508,0.589 -1.275,0.887 -2.046,0.797 -0.24,-0.029 -0.472,-0.094 -0.689,-0.192l-0.788 0.915c-0.508,0.589 -1.275,0.887 -2.047,0.796 -0.24,-0.028 -0.473,-0.093 -0.69,-0.191l-0.788 0.915c-0.84,0.974 -2.326,1.085 -3.3,0.245l-0.866 -0.747 -7.785 -6.71 -3.58 -0.238c-0.188,-0.012 -0.345,-0.092 -0.466,-0.237 -0.12,-0.145 -0.17,-0.314 -0.148,-0.501l0.434 -3.702 1.001 -8.517c0.042,-0.351 0.351,-0.608 0.703,-0.584l3.471 0.236 0.711 -1.388c0.505,-0.986 1.635,-1.482 2.703,-1.187l7.236 2.003c1.386,0.383 2.286,1.721 2.118,3.149l-0.342 2.914 3.053 2.631 0.772 0.665 1.08 0.93 3.879 3.346c0.82,0.707 0.914,1.957 0.206,2.776l-0.308 0.356c-0.69,0.799 -1.814,1.016 -2.734,0.603z"/>
   <path class="fil4" d="M32.573 17.719l-3.88 -3.346 -1.08 -0.93 -0.772 -0.665 -3.319 -2.861 0.383 -3.264c0.13,-1.103 -0.565,-2.136 -1.636,-2.433l-7.236 -2.002c-0.766,-0.212 -1.575,0.143 -1.938,0.85l-0.91 1.777 -3.906 -0.266 -1.001 8.518 -0.434 3.701 3.802 0.253 0.008 0.007 7.943 6.848 0.866 0.746c0.702,0.605 1.762,0.526 2.366,-0.175l1.159 -1.345c0.263,0.227 0.577,0.358 0.898,0.395 0.534,0.063 1.089,-0.131 1.468,-0.571l1.158 -1.345c0.263,0.227 0.577,0.359 0.898,0.397 0.535,0.062 1.09,-0.134 1.467,-0.571l1.16 -1.346c0.702,0.605 1.761,0.526 2.365,-0.175l0.308 -0.356c0.47,-0.546 0.409,-1.37 -0.137,-1.841l0 0z"/>
   <path class="fil1" d="M25.25 11.407l-1.728 -1.49 0.383 -3.264c0.13,-1.103 -0.565,-2.136 -1.636,-2.433l-4.319 -1.195c-0.035,0.052 -0.068,0.105 -0.1,0.159l-4.236 7.292c-0.518,0.892 -0.111,2.036 0.853,2.401l0.173 0.066c1.825,0.691 3.89,0.101 5.078,-1.445l1.169 -1.522c0.656,0.555 1.485,1.019 2.231,1.249 0.705,0.218 1.422,0.28 2.132,0.182z"/>
   <path class="fil5" d="M32.573 17.719l-1.182 -1.019c0.384,0.51 0.376,1.234 -0.058,1.737l-0.326 0.379c-0.642,0.744 -1.765,0.827 -2.51,0.185l-1.232 1.428c-0.4,0.465 -0.989,0.673 -1.557,0.607 -0.341,-0.041 -0.674,-0.18 -0.953,-0.422l-1.23 1.429c-0.402,0.466 -0.991,0.672 -1.558,0.606 -0.341,-0.04 -0.675,-0.178 -0.954,-0.42l-1.23 1.427c-0.231,0.27 -0.526,0.451 -0.843,0.545l0.523 0.451c0.702,0.605 1.762,0.527 2.366,-0.176l1.158 -1.344c0.263,0.227 0.578,0.358 0.899,0.395 0.534,0.063 1.089,-0.132 1.468,-0.571l1.159 -1.345c0.262,0.227 0.576,0.359 0.898,0.396 0.534,0.063 1.089,-0.133 1.466,-0.571l1.16 -1.345c0.702,0.604 1.76,0.526 2.365,-0.175l0.308 -0.356c0.47,-0.547 0.409,-1.37 -0.137,-1.841l0 0z"/>
   <path class="fil5" d="M30.43 19.643l-2.126 -1.833c-0.253,-0.218 -0.634,-0.19 -0.852,0.063 -0.218,0.253 -0.19,0.634 0.063,0.852l2.122 1.83 0.4 -0.464c0.16,0.137 0.338,0.238 0.525,0.305 0.138,-0.245 0.089,-0.562 -0.132,-0.753l0 0z"/>
   <path class="fil5" d="M27.03 21.916c0.146,-0.247 0.099,-0.57 -0.126,-0.764l-1.909 -1.647c-0.253,-0.218 -0.635,-0.189 -0.853,0.063 -0.218,0.253 -0.189,0.635 0.063,0.853l1.91 1.646c0.001,0.001 0.002,0.002 0.003,0.002l0.395 -0.458c0.157,0.136 0.333,0.237 0.517,0.305l0 0z"/>
   <path class="fil1" d="M19.683 20.214c0.562,-0.089 1.158,0.042 1.647,0.412 0.953,0.722 1.141,2.081 0.419,3.034l-1.25 1.65c-0.722,0.953 -2.081,1.141 -3.034,0.419 -0.465,-0.352 -0.748,-0.856 -0.832,-1.391 -0.537,0.064 -1.099,-0.071 -1.565,-0.424 -0.465,-0.352 -0.748,-0.856 -0.832,-1.391 -0.537,0.064 -1.099,-0.072 -1.564,-0.424 -0.466,-0.352 -0.749,-0.857 -0.832,-1.391 -0.538,0.064 -1.1,-0.071 -1.565,-0.424 -0.953,-0.722 -1.141,-2.081 -0.419,-3.034l0.46 -0.607c0.722,-0.953 2.081,-1.141 3.034,-0.42 0.344,0.261 0.588,0.604 0.726,0.981 0.674,-0.256 1.461,-0.169 2.078,0.298 0.367,0.279 0.621,0.652 0.752,1.06 0.646,-0.203 1.378,-0.101 1.958,0.339 0.443,0.335 0.72,0.808 0.819,1.313z"/>
   <g>
    <path class="fil2" d="M10.844 17.043l-0.46 0.607c-0.501,0.662 -0.371,1.605 0.291,2.106l0 0c0.661,0.501 1.604,0.371 2.106,-0.291l0.46 -0.608c0.501,-0.662 0.371,-1.604 -0.291,-2.105l0 0c-0.662,-0.502 -1.605,-0.371 -2.106,0.291z"/>
    <path class="fil2" d="M13.647 18.321l-0.866 1.144c-0.502,0.662 -0.371,1.605 0.291,2.106l0 0c0.661,0.501 1.604,0.371 2.105,-0.291l0.867 -1.144c0.501,-0.662 0.371,-1.605 -0.29,-2.106l0 0c-0.662,-0.501 -1.605,-0.371 -2.107,0.291l0 0z"/>
    <path class="fil2" d="M16.359 19.72l-1.182 1.56c-0.501,0.662 -0.371,1.605 0.291,2.106l0 0c0.662,0.501 1.605,0.371 2.106,-0.291l1.181 -1.559c0.502,-0.662 0.371,-1.605 -0.291,-2.107l0 0c-0.662,-0.501 -1.604,-0.371 -2.105,0.291z"/>
    <path class="fil2" d="M18.824 21.445l-1.25 1.65c-0.501,0.662 -0.371,1.605 0.291,2.106l0 0c0.661,0.501 1.604,0.371 2.106,-0.291l1.25 -1.65c0.5,-0.662 0.37,-1.604 -0.291,-2.106l0 0c-0.662,-0.501 -1.605,-0.371 -2.106,0.291l0 0z"/>
   </g>
   <path class="fil2" d="M31.347 4.257l-3.806 -2.142c-0.406,-0.229 -0.872,-0.328 -1.336,-0.285l-6.011 0.556c-0.738,0.068 -1.398,0.489 -1.771,1.131l-4.236 7.292c-0.313,0.538 -0.067,1.228 0.515,1.449l0.173 0.065c1.553,0.587 3.307,0.087 4.318,-1.229l1.623 -2.112c0,0 3.901,4.517 8.197,-0.758l2.334 -3.967 0 0zm0 0l0 0 0 0z"/>
   <path class="fil1" d="M42.563 17.285c0.085,0.693 -0.409,1.326 -1.103,1.411l-4.655 0.573c-0.117,0.015 -0.235,0.023 -0.352,0.023 -1.447,0 -2.672,-1.085 -2.849,-2.522l-1.599 -12.986c-0.193,-1.57 0.93,-3.008 2.499,-3.202l4.656 -0.573c0.332,-0.04 0.672,0.054 0.935,0.26 0.264,0.207 0.436,0.51 0.477,0.843l1.991 16.173z"/>
   <path class="fil6" d="M41.906 17.366l-1.991 -16.173c-0.02,-0.159 -0.102,-0.304 -0.228,-0.403 -0.126,-0.098 -0.287,-0.143 -0.446,-0.123l-4.656 0.573c-1.209,0.149 -2.071,1.254 -1.923,2.463l1.599 12.986c0.138,1.118 1.093,1.94 2.192,1.94 0.089,0 0.18,-0.006 0.271,-0.017l4.655 -0.573c0.332,-0.041 0.567,-0.342 0.526,-0.673l0.001 0z"/>
   <path class="fil7" d="M41.906 17.366l-0.219 -1.776c-0.099,0.146 -0.257,0.25 -0.446,0.273l-4.88 0.6c-0.096,0.012 -0.191,0.018 -0.285,0.018 -0.821,0 -1.566,-0.438 -1.977,-1.115l0.162 1.323c0.138,1.118 1.093,1.94 2.191,1.94 0.09,0 0.181,-0.006 0.272,-0.017l4.655 -0.573c0.332,-0.041 0.567,-0.342 0.527,-0.673l0 0z"/>
   <path class="fil1" d="M8.068 0.582c1.57,0.194 2.692,1.632 2.499,3.202l-1.598 12.986c-0.177,1.437 -1.403,2.522 -2.849,2.522 -0.118,0 -0.236,-0.008 -0.352,-0.022l-4.656 -0.574c-0.693,-0.085 -1.188,-0.718 -1.102,-1.411l1.991 -16.174c0.041,-0.333 0.213,-0.636 0.477,-0.843 0.263,-0.205 0.603,-0.299 0.934,-0.259l4.656 0.573z"/>
   <path class="fil8" d="M7.987 1.24l-4.656 -0.573c-0.159,-0.02 -0.319,0.025 -0.445,0.123 -0.127,0.099 -0.208,0.244 -0.228,0.402l-1.991 16.174c-0.041,0.331 0.195,0.632 0.526,0.673l4.656 0.573c0.091,0.011 0.181,0.017 0.271,0.017 1.099,0 2.053,-0.822 2.191,-1.94l1.599 -12.986c0.148,-1.209 -0.714,-2.314 -1.923,-2.463z"/>
   <path class="fil9" d="M0.667 17.366l0.219 -1.776c0.099,0.146 0.257,0.25 0.445,0.273l4.88 0.6c0.096,0.012 0.191,0.018 0.285,0.018 0.822,0 1.566,-0.438 1.978,-1.115l-0.163 1.323c-0.138,1.118 -1.092,1.94 -2.191,1.94 -0.09,0 -0.18,-0.006 -0.271,-0.017l-4.656 -0.573c-0.331,-0.041 -0.567,-0.342 -0.526,-0.673l0 0z"/>
   <circle class="fil10" cx="38.043" cy="14.776" r="1.168"/>
   <circle class="fil10" cx="4.464" cy="14.776" r="1.168"/>
  </g>
 </g>
</svg>
