<?xml version="1.0" encoding="UTF-8"?>
<!DOCTYPE svg PUBLIC "-//W3C//DTD SVG 1.1//EN" "http://www.w3.org/Graphics/SVG/1.1/DTD/svg11.dtd">
<!-- Creator: CorelDRAW 2018 -->
<svg xmlns="http://www.w3.org/2000/svg" xml:space="preserve" width="319px" height="224px" version="1.1" style="shape-rendering:geometricPrecision; text-rendering:geometricPrecision; image-rendering:optimizeQuality; fill-rule:evenodd; clip-rule:evenodd"
viewBox="0 0 44.605 31.254"
 xmlns:xlink="http://www.w3.org/1999/xlink">
 <defs>
  <style type="text/css">
   <![CDATA[
    .fil4 {fill:#24242B}
    .fil2 {fill:#444654}
    .fil1 {fill:#707487}
    .fil8 {fill:#959CB3}
    .fil6 {fill:#AFB9D2}
    .fil5 {fill:#C7CFE2}
    .fil7 {fill:#FF9100}
    .fil3 {fill:#FFC300}
    .fil0 {fill:white}
   ]]>
  </style>
 </defs>
 <g id="Слой_x0020_1">
  <metadata id="CorelCorpID_0Corel-Layer"/>
  <g id="_969846440">
   <path class="fil0" d="M25.269 27.545l-5.934 0c-0.83,0 -1.506,-0.66 -1.533,-1.483l-4.35 0c-0.027,2.871 -2.364,5.192 -5.242,5.192 -2.879,0 -5.215,-2.321 -5.243,-5.192l-0.691 0c-0.847,0 -1.534,-0.688 -1.534,-1.535l0 -3.878c-0.445,-0.268 -0.742,-0.756 -0.742,-1.314l0 -17.801c0,-0.847 0.687,-1.534 1.534,-1.534l25.219 0c0.847,0 1.534,0.687 1.534,1.534l0 2.417c0.221,-0.576 0.779,-0.984 1.432,-0.984l4.819 0c1.817,0 3.374,1.298 3.699,3.086l0.986 5.425 2.989 0.854c0.977,0.279 1.651,1.173 1.651,2.189l0 2.392c0.456,0.416 0.742,1.015 0.742,1.681l0 5.192c0,0.615 -0.363,1.146 -0.886,1.39 -0.244,0.523 -0.775,0.886 -1.39,0.886l-1.433 0c-0.027,2.871 -2.364,5.192 -5.243,5.192 -2.878,0 -5.215,-2.321 -5.242,-5.192l-2.125 0c-0.027,0.823 -0.703,1.483 -1.533,1.483l-1.484 0z"/>
   <g>
    <polygon class="fil0" points="37.878,12.66 29.719,12.66 29.719,5.243 36.395,5.243 "/>
    <path class="fil1" d="M2.276 25.269l40.053 0c0.409,0 0.742,-0.332 0.742,-0.742l0 -5.192 -41.537 0 0 5.192c0,0.41 0.332,0.742 0.742,0.742z"/>
    <polygon class="fil2" points="29.719,19.335 29.719,7.468 26.753,7.468 26.753,19.335 1.534,19.335 1.534,22.302 43.07,22.302 43.07,19.335 "/>
    <path class="fil3" d="M1.534 0.792l25.219 0c0.409,0 0.741,0.333 0.741,0.742l0 17.801c0,0.41 -0.332,0.742 -0.741,0.742l-25.219 0c-0.409,0 -0.742,-0.332 -0.742,-0.742l0 -17.801c0,-0.409 0.333,-0.742 0.742,-0.742z"/>
    <path class="fil3" d="M41.995 13.094l-3.464 -0.989 -1.074 -5.91c-0.257,-1.412 -1.485,-2.436 -2.919,-2.436l-4.819 0c-0.409,0 -0.741,0.332 -0.741,0.742l0 13.351 14.092 0 0 -3.331c0,-0.663 -0.438,-1.245 -1.075,-1.427zm-10.05 -1.176c-0.82,0 -1.484,-0.664 -1.484,-1.483l0 -3.709c0,-0.409 0.333,-0.742 0.742,-0.742l4.098 0c0.358,0 0.666,0.258 0.729,0.611l0.868 4.814c0.048,0.265 -0.156,0.509 -0.426,0.509l-4.527 0 0 0z"/>
    <circle class="fil4" cx="35.653" cy="26.011" r="4.45"/>
    <circle class="fil5" cx="35.653" cy="26.011" r="2.967"/>
    <circle class="fil6" cx="35.653" cy="26.011" r="1.112"/>
    <circle class="fil4" cx="8.21" cy="26.011" r="4.45"/>
    <circle class="fil5" cx="8.21" cy="26.011" r="2.967"/>
    <circle class="fil6" cx="8.21" cy="26.011" r="1.112"/>
    <path class="fil7" d="M29.719 24.527l0.284 0c0.281,0 0.538,-0.158 0.663,-0.41l1.61 -3.22c0.252,-0.502 0.765,-0.82 1.327,-0.82l4.101 0c0.561,0 1.075,0.318 1.326,0.82l1.61 3.22c0.126,0.252 0.383,0.41 0.664,0.41l1.766 0c0.41,0 0.742,-0.332 0.742,-0.741l0 -5.192c0,-0.82 -0.664,-1.484 -1.483,-1.484l-13.351 0 0 6.676c0,0.409 0.332,0.741 0.741,0.741l0 0z"/>
    <path class="fil6" d="M26.753 26.753l-7.418 0c-0.409,0 -0.741,-0.332 -0.741,-0.742l0 -2.967c0,-0.409 0.332,-0.742 0.741,-0.742l7.418 0c0.409,0 0.741,0.333 0.741,0.742l0 2.967c0,0.41 -0.332,0.742 -0.741,0.742z"/>
    <path class="fil8" d="M21.561 23.786l0 0c-0.41,0 -0.742,0.332 -0.742,0.741l0 2.226 1.483 0 0 -2.226c0,-0.409 -0.332,-0.741 -0.741,-0.741z"/>
    <path class="fil8" d="M24.527 23.786l0 0c-0.409,0 -0.741,0.332 -0.741,0.741l0 2.226 1.483 0 0 -2.226c0,-0.409 -0.332,-0.741 -0.742,-0.741z"/>
    <path class="fil7" d="M25.269 18.594l-22.251 0c-0.41,0 -0.742,-0.332 -0.742,-0.742l0 0c0,-0.41 0.332,-0.742 0.742,-0.742l22.251 0c0.41,0 0.742,0.332 0.742,0.742l0 0c0,0.41 -0.332,0.742 -0.742,0.742z"/>
   </g>
  </g>
 </g>
</svg>
