<?xml version="1.0" encoding="UTF-8"?>
<!DOCTYPE svg PUBLIC "-//W3C//DTD SVG 1.1//EN" "http://www.w3.org/Graphics/SVG/1.1/DTD/svg11.dtd">
<!-- Creator: CorelDRAW 2018 -->
<svg xmlns="http://www.w3.org/2000/svg" xml:space="preserve" width="359px" height="222px" version="1.1" style="shape-rendering:geometricPrecision; text-rendering:geometricPrecision; image-rendering:optimizeQuality; fill-rule:evenodd; clip-rule:evenodd"
viewBox="0 0 280.029 172.868"
 xmlns:xlink="http://www.w3.org/1999/xlink">
 <defs>
  <style type="text/css">
   <![CDATA[
    .fil10 {fill:#24242B}
    .fil2 {fill:#444654}
    .fil4 {fill:#707487}
    .fil13 {fill:#959CB3}
    .fil11 {fill:#AFB9D2}
    .fil8 {fill:#B9BBC1}
    .fil3 {fill:#C7CFE2}
    .fil14 {fill:#E64538}
    .fil12 {fill:#FF9100}
    .fil9 {fill:#FFC300}
    .fil1 {fill:white}
    .fil0 {fill:white}
    .fil7 {fill:#385E96;fill-rule:nonzero}
    .fil6 {fill:#B4B4B4;fill-rule:nonzero}
    .fil5 {fill:#E64538;fill-rule:nonzero}
   ]]>
  </style>
 </defs>
 <g id="Слой_x0020_1">
  <metadata id="CorelCorpID_0Corel-Layer"/>
  <g id="_664721512">
   <path class="fil0" d="M274.293 149.83c3.28,0.713 5.736,3.634 5.736,7.128 0,8.776 -7.134,15.91 -15.91,15.91l-160.642 0c-8.776,0 -15.91,-7.134 -15.91,-15.91 0,-3.494 2.456,-6.415 5.736,-7.128l0 -97.317c0,-9.724 7.921,-17.611 17.639,-17.611l145.707 0c9.718,0 17.644,7.885 17.644,17.611l0 97.317z"/>
   <g>
    <rect class="fil1" x="109.204" y="50.803" width="149.191" height="91.808"/>
    <path class="fil2" d="M256.649 39.325l-145.707 0c-7.288,0 -13.216,5.916 -13.216,13.188l0 104.445c0,1.585 1.283,2.868 2.871,2.868l166.402 0c1.588,0 2.872,-1.283 2.872,-2.868l0 -104.445c0,-7.272 -5.932,-13.188 -13.222,-13.188l0 0zm-147.445 100.418l0 -86.072c0,-1.585 1.283,-2.868 2.868,-2.868l143.452 0c1.585,0 2.868,1.283 2.868,2.868l0 86.072c0,1.585 -1.283,2.868 -2.868,2.868l-143.452 0c-1.585,0 -2.868,-1.283 -2.868,-2.868z"/>
    <path class="fil3" d="M272.738 154.087l-177.88 0c-1.585,0 -2.868,1.283 -2.868,2.871l0 0c0,6.333 5.151,11.487 11.487,11.487l160.642 0c6.336,0 11.487,-5.154 11.487,-11.487l0 0c0,-1.588 -1.283,-2.871 -2.868,-2.871l0 0z"/>
    <path class="fil4" d="M172.323 159.826l22.95 0c3.17,0 5.74,-2.57 5.74,-5.739l-34.429 0c0,3.169 2.569,5.739 5.739,5.739l0 0z"/>
    <path class="fil5" d="M201.351 63.29l0 -2.85 3.072 0 0 2.85 -3.072 0zm0 13.213l0 -11.643 3.072 0 0 11.643 -3.072 0zm15.574 0l-3.072 0 0 -5.935c0,-1.255 -0.067,-2.066 -0.198,-2.432 -0.134,-0.371 -0.347,-0.655 -0.649,-0.859 -0.299,-0.207 -0.655,-0.308 -1.076,-0.308 -0.536,0 -1.021,0.146 -1.448,0.436 -0.429,0.292 -0.719,0.683 -0.877,1.161 -0.162,0.482 -0.238,1.372 -0.238,2.673l0 5.263 -3.075 0 0 -11.642 2.849 0 0 1.709c1.021,-1.304 2.305,-1.956 3.856,-1.956 0.68,0 1.304,0.125 1.868,0.366 0.57,0.246 0.994,0.557 1.283,0.935 0.293,0.381 0.494,0.811 0.607,1.292 0.116,0.485 0.17,1.174 0.17,2.07l0 7.226 0 0.001zm1.271 -11.643l1.704 0 0 -0.878c0,-0.981 0.104,-1.713 0.314,-2.194 0.211,-0.488 0.595,-0.881 1.155,-1.183 0.564,-0.302 1.274,-0.457 2.137,-0.457 0.878,0 1.74,0.131 2.585,0.393l-0.39 2.14c-0.503,-0.116 -0.985,-0.177 -1.448,-0.177 -0.457,0 -0.78,0.106 -0.979,0.314 -0.197,0.21 -0.301,0.616 -0.301,1.213l0 0.829 2.313 0 0 2.423 -2.313 0 0 9.22 -3.072 0 0 -9.22 -1.704 0 0 -2.423 -0.001 0zm7.599 5.678c0,-1.024 0.25,-2.015 0.756,-2.972 0.503,-0.96 1.219,-1.688 2.142,-2.194 0.924,-0.503 1.951,-0.759 3.091,-0.759 1.762,0 3.2,0.573 4.328,1.716 1.125,1.149 1.686,2.591 1.686,4.34 0,1.765 -0.57,3.228 -1.701,4.386 -1.137,1.161 -2.067,1.74 -3.792,1.74 -1.063,0 -2.581,-0.243 -3.547,-0.725 -0.967,-0.481 -1.704,-1.189 -2.207,-2.124 -0.506,-0.93 -0.756,-2.067 -0.756,-3.408l0 0zm3.164 0.165c0,1.155 0.271,2.042 0.82,2.654 0.548,0.619 1.222,0.924 2.023,0.924 0.802,0 1.475,-0.305 2.018,-0.924 0.539,-0.612 0.814,-1.505 0.814,-2.676 0,-1.139 -0.275,-2.017 -0.814,-2.633 -0.543,-0.616 -1.216,-0.924 -2.018,-0.924 -0.801,0 -1.475,0.308 -2.023,0.924 -0.549,0.616 -0.82,1.5 -0.82,2.655z"/>
    <path class="fil6" d="M237.858 76.503l0 -1.396 1.399 0 0 1.396 -1.399 0zm2.783 0l0 -7.303 1.399 0 0 2.633c0.43,-0.49 0.942,-0.737 1.533,-0.737 0.644,0 1.177,0.234 1.597,0.701 0.421,0.469 0.634,1.14 0.634,2.015 0,0.905 -0.216,1.603 -0.646,2.091 -0.43,0.487 -0.954,0.734 -1.566,0.734 -0.302,0 -0.601,-0.079 -0.897,-0.235 -0.292,-0.155 -0.545,-0.38 -0.759,-0.676l0 0.777 -1.295 0 0 0zm1.378 -2.75c0,0.549 0.085,0.958 0.259,1.22 0.244,0.375 0.564,0.56 0.969,0.56 0.308,0 0.573,-0.13 0.793,-0.396 0.216,-0.265 0.326,-0.685 0.326,-1.255 0,-0.607 -0.113,-1.043 -0.333,-1.311 -0.216,-0.268 -0.496,-0.402 -0.841,-0.402 -0.338,0 -0.615,0.131 -0.838,0.393 -0.222,0.259 -0.335,0.658 -0.335,1.191zm4.243 -2.544l1.487 0 1.271 3.755 1.24 -3.755 1.448 0 -1.868 5.096 -0.336 0.92c-0.125,0.308 -0.24,0.543 -0.353,0.704 -0.11,0.162 -0.241,0.296 -0.384,0.396 -0.146,0.101 -0.323,0.18 -0.537,0.235 -0.21,0.055 -0.451,0.086 -0.716,0.086 -0.268,0 -0.533,-0.031 -0.795,-0.086l-0.122 -1.091c0.219,0.043 0.417,0.064 0.594,0.064 0.326,0 0.57,-0.094 0.725,-0.286 0.156,-0.192 0.278,-0.439 0.36,-0.735l-2.014 -5.303 0 0z"/>
    <path class="fil7" d="M149.439 76.57l0 -13.42 -4.782 0 0 -2.731 12.813 0 0 2.731 -4.76 0 0 13.42 -3.271 0zm11.043 0l-3.091 0 0 -11.707 2.865 0 0 1.661c0.494,-0.787 0.936,-1.302 1.332,-1.545 0.393,-0.244 0.841,-0.363 1.341,-0.363 0.707,0 1.387,0.195 2.042,0.582l-0.96 2.698c-0.521,-0.339 -1.005,-0.506 -1.454,-0.506 -0.436,0 -0.804,0.119 -1.106,0.356 -0.299,0.241 -0.536,0.671 -0.71,1.292 -0.174,0.625 -0.259,1.933 -0.259,3.923l0 3.609 0 0zm7.784 -8.098l-2.798 -0.497c0.317,-1.143 0.863,-1.987 1.631,-2.536 0.771,-0.549 1.917,-0.823 3.438,-0.823 1.377,0 2.408,0.162 3.084,0.488 0.674,0.326 1.152,0.74 1.427,1.243 0.274,0.506 0.414,1.427 0.414,2.771l-0.045 3.608c0,1.028 0.048,1.787 0.146,2.277 0.098,0.488 0.28,1.009 0.552,1.567l-3.066 0c-0.08,-0.204 -0.183,-0.503 -0.299,-0.902 -0.049,-0.183 -0.086,-0.305 -0.11,-0.36 -0.524,0.518 -1.088,0.905 -1.692,1.164 -0.6,0.259 -1.24,0.39 -1.92,0.39 -1.197,0 -2.145,-0.326 -2.837,-0.981 -0.692,-0.65 -1.039,-1.475 -1.039,-2.478 0,-0.655 0.158,-1.247 0.475,-1.765 0.314,-0.515 0.756,-0.914 1.326,-1.188 0.57,-0.275 1.387,-0.516 2.46,-0.723 1.444,-0.271 2.447,-0.527 3.002,-0.759l0 -0.311c0,-0.603 -0.147,-1.03 -0.439,-1.289 -0.296,-0.256 -0.854,-0.384 -1.67,-0.384 -0.552,0 -0.979,0.107 -1.29,0.329 -0.311,0.22 -0.557,0.607 -0.75,1.159l0 0zm4.148 2.505c-0.393,0.131 -1.021,0.289 -1.88,0.472 -0.86,0.183 -1.424,0.366 -1.686,0.537 -0.402,0.289 -0.606,0.652 -0.606,1.091 0,0.436 0.161,0.807 0.484,1.124 0.327,0.318 0.735,0.473 1.235,0.473 0.557,0 1.091,-0.183 1.597,-0.549 0.371,-0.28 0.622,-0.619 0.737,-1.024 0.079,-0.265 0.119,-0.768 0.119,-1.509l0 -0.615 0 0zm15.499 5.593l-3.091 0 0 -5.965c0,-1.265 -0.067,-2.082 -0.198,-2.447 -0.137,-0.375 -0.35,-0.659 -0.649,-0.866 -0.302,-0.207 -0.664,-0.308 -1.085,-0.308 -0.54,0 -1.024,0.147 -1.454,0.439 -0.433,0.293 -0.725,0.686 -0.884,1.164 -0.162,0.488 -0.241,1.381 -0.241,2.689l0 5.294 -3.09 0 0 -11.707 2.865 0 0 1.719c1.027,-1.314 2.316,-1.966 3.877,-1.966 0.682,0 1.31,0.122 1.88,0.369 0.57,0.247 1,0.557 1.289,0.938 0.293,0.384 0.494,0.817 0.607,1.302 0.119,0.485 0.174,1.176 0.174,2.079l0 7.266 0 0zm1.234 -3.292l3.115 -0.475c0.131,0.597 0.397,1.051 0.802,1.362 0.402,0.311 0.972,0.467 1.697,0.467 0.799,0 1.402,-0.15 1.808,-0.443 0.271,-0.207 0.405,-0.484 0.405,-0.829 0,-0.234 -0.073,-0.429 -0.222,-0.585 -0.153,-0.146 -0.5,-0.283 -1.034,-0.408 -2.499,-0.552 -4.081,-1.058 -4.751,-1.512 -0.927,-0.634 -1.39,-1.515 -1.39,-2.639 0,-1.018 0.402,-1.872 1.204,-2.563 0.798,-0.692 2.039,-1.037 3.722,-1.037 1.6,0 2.791,0.262 3.569,0.784 0.78,0.527 1.316,1.301 1.609,2.328l-2.908 0.543c-0.125,-0.461 -0.366,-0.814 -0.716,-1.058 -0.348,-0.244 -0.847,-0.366 -1.5,-0.366 -0.82,0 -1.405,0.113 -1.761,0.344 -0.238,0.162 -0.354,0.372 -0.354,0.628 0,0.22 0.101,0.409 0.308,0.564 0.28,0.204 1.247,0.494 2.902,0.872 1.655,0.375 2.807,0.835 3.462,1.377 0.649,0.552 0.975,1.32 0.975,2.308 0,1.069 -0.448,1.993 -1.347,2.764 -0.896,0.771 -2.222,1.158 -3.98,1.158 -1.594,0 -2.859,-0.323 -3.792,-0.966 -0.927,-0.643 -1.536,-1.515 -1.823,-2.618l0 0z"/>
    <path class="fil8" d="M173.201 135.479l-45.033 0c-1.463,0 -2.648,-1.185 -2.648,-2.648l0 -42.384c0,-1.463 1.185,-2.652 2.648,-2.652l45.033 0c1.463,0 2.648,1.189 2.648,2.652l0 42.384c0,1.463 -1.185,2.648 -2.648,2.648z"/>
    <path class="fil8" d="M207.639 114.287l-21.192 0c-1.463,0 -2.649,-1.185 -2.649,-2.648 0,-1.466 1.186,-2.649 2.649,-2.649l21.192 0c1.466,0 2.648,1.182 2.648,2.649 0,1.463 -1.182,2.648 -2.648,2.648z"/>
    <path class="fil8" d="M207.639 124.885l-21.192 0c-1.463,0 -2.649,-1.186 -2.649,-2.652 0,-1.463 1.186,-2.648 2.649,-2.648l21.192 0c1.466,0 2.648,1.185 2.648,2.648 0,1.466 -1.182,2.652 -2.648,2.652z"/>
    <path class="fil8" d="M207.639 135.479l-21.192 0c-1.463,0 -2.649,-1.185 -2.649,-2.648 0,-1.464 1.186,-2.649 2.649,-2.649l21.192 0c1.466,0 2.648,1.185 2.648,2.649 0,1.463 -1.182,2.648 -2.648,2.648z"/>
    <path class="fil8" d="M239.428 114.287l-21.192 0c-1.466,0 -2.648,-1.185 -2.648,-2.648 0,-1.466 1.182,-2.649 2.648,-2.649l21.192 0c1.463,0 2.649,1.182 2.649,2.649 0,1.463 -1.186,2.648 -2.649,2.648z"/>
    <path class="fil8" d="M239.428 124.885l-21.192 0c-1.466,0 -2.648,-1.186 -2.648,-2.652 0,-1.463 1.182,-2.648 2.648,-2.648l21.192 0c1.463,0 2.649,1.185 2.649,2.648 0,1.466 -1.186,2.652 -2.649,2.652z"/>
    <path class="fil8" d="M239.428 135.479l-21.192 0c-1.466,0 -2.648,-1.185 -2.648,-2.648 0,-1.464 1.182,-2.649 2.648,-2.649l21.192 0c1.463,0 2.649,1.185 2.649,2.649 0,1.463 -1.186,2.648 -2.649,2.648z"/>
    <path class="fil8" d="M207.639 94.101l-21.192 0c-1.463,0 -2.649,-1.185 -2.649,-2.648 0,-1.467 1.186,-2.649 2.649,-2.649l21.192 0c1.466,0 2.648,1.182 2.648,2.649 0,1.463 -1.182,2.648 -2.648,2.648z"/>
    <path class="fil8" d="M207.639 104.699l-21.192 0c-1.463,0 -2.649,-1.186 -2.649,-2.649 0,-1.466 1.186,-2.652 2.649,-2.652l21.192 0c1.466,0 2.648,1.186 2.648,2.652 0,1.463 -1.182,2.649 -2.648,2.649z"/>
    <path class="fil8" d="M239.428 94.101l-21.192 0c-1.466,0 -2.648,-1.185 -2.648,-2.648 0,-1.467 1.182,-2.649 2.648,-2.649l21.192 0c1.463,0 2.649,1.182 2.649,2.649 0,1.463 -1.186,2.648 -2.649,2.648z"/>
    <path class="fil8" d="M239.428 104.699l-21.192 0c-1.466,0 -2.648,-1.186 -2.648,-2.649 0,-1.466 1.182,-2.652 2.648,-2.652l21.192 0c1.463,0 2.649,1.186 2.649,2.652 0,1.463 -1.186,2.649 -2.649,2.649z"/>
   </g>
   <g>
    <path class="fil0" d="M98.11 85.373c-0.006,0.003 -0.012,0.006 -0.018,0.01l-3.749 2.165c-0.008,0.004 -0.016,0.008 -0.023,0.013l-3.727 2.152c-2.459,1.419 -5.463,1.068 -7.525,-0.656l-7.809 4.509c3.307,7.949 0.275,17.338 -7.376,21.756 -7.651,4.417 -17.298,2.348 -22.528,-4.491l-0.046 0.027c-3.145,1.816 -7.183,0.733 -8.999,-2.411l-5.138 -8.9c-1.754,-0.38 -3.348,-1.469 -4.314,-3.141l-25.977 -44.994c-1.816,-3.145 -0.734,-7.183 2.411,-8.999l63.742 -36.801c3.145,-1.816 7.183,-0.734 8.999,2.411l1.203 2.083c0.456,-0.513 1,-0.963 1.627,-1.325l12.179 -7.031c5.466,-3.156 12.432,-1.95 16.516,2.865l9.561 11.273 7.53 -1.885c3.789,-0.949 7.751,0.731 9.705,4.114l3.065 5.31c1.937,0.66 3.653,1.996 4.753,3.903l7.577 13.122c1.184,2.052 1.136,4.483 0.086,6.43 -0.064,2.212 -1.238,4.342 -3.29,5.527l-1.919 1.108c3.307,7.949 0.275,17.339 -7.376,21.756 -7.652,4.418 -17.299,2.348 -22.529,-4.49l-2.186 1.262c0.462,2.647 -0.736,5.424 -3.194,6.844l-11.231 6.484z"/>
    <g>
     <polygon class="fil0" points="114.685,23.202 94.062,35.108 83.238,16.361 100.111,6.619 "/>
     <path class="fil4" d="M43.097 107.028l101.237 -58.449c1.036,-0.598 1.391,-1.923 0.793,-2.958l-7.577 -13.123 -104.987 60.614 7.577 13.123c0.598,1.036 1.922,1.391 2.957,0.793z"/>
     <polygon class="fil2" points="103.804,51.981 86.486,21.985 78.987,26.315 96.305,56.311 32.563,93.112 36.893,100.612 141.88,39.998 137.55,32.498 "/>
     <path class="fil9" d="M5.503 46.243l63.742 -36.801c1.036,-0.598 2.36,-0.243 2.958,0.792l25.977 44.994c0.598,1.036 0.243,2.36 -0.792,2.958l-63.742 36.801c-1.036,0.598 -2.36,0.243 -2.958,-0.792l-25.977 -44.995c-0.598,-1.035 -0.243,-2.359 0.792,-2.957z"/>
     <path class="fil9" d="M125.723 18.293l-10.198 2.553 -11.34 -13.371c-2.71,-3.191 -7.307,-3.988 -10.932,-1.895l-12.179 7.031c-1.035,0.598 -1.391,1.922 -0.792,2.958l19.483 33.746 35.62 -20.566 -4.861 -8.42c-0.967,-1.675 -2.926,-2.506 -4.801,-2.036zm-27.118 11.693c-2.072,1.196 -4.719,0.487 -5.915,-1.584l-5.412 -9.374c-0.598,-1.036 -0.242,-2.36 0.792,-2.957l10.358 -5.98c0.907,-0.524 2.059,-0.323 2.735,0.477l9.218 10.901c0.509,0.601 0.349,1.517 -0.333,1.91l-11.443 6.607 0 0z"/>
     <circle class="fil10" transform="matrix(0.452913 -0.26149 0.26149 0.452913 128.544 60.1947)" r="24.835"/>
     <circle class="fil3" transform="matrix(0.452913 -0.26149 0.26149 0.452913 128.544 60.1947)" r="16.556"/>
     <circle class="fil11" transform="matrix(0.452913 -0.26149 0.26149 0.452913 128.544 60.1947)" r="6.208"/>
     <circle class="fil10" transform="matrix(0.452913 -0.26149 0.26149 0.452913 59.1778 100.243)" r="24.835"/>
     <circle class="fil3" transform="matrix(0.452913 -0.26149 0.26149 0.452913 59.1778 100.243)" r="16.556"/>
     <circle class="fil11" transform="matrix(0.452913 -0.26149 0.26149 0.452913 59.1778 100.243)" r="6.208"/>
     <path class="fil12" d="M111.381 65.105l0.716 -0.414c0.71,-0.41 1.128,-1.186 1.078,-2.004l-0.628 -10.489c-0.1,-1.637 0.736,-3.19 2.156,-4.01l10.364 -5.983c1.42,-0.82 3.182,-0.767 4.55,0.137l8.77 5.789c0.684,0.452 1.565,0.478 2.274,0.068l4.466 -2.578c1.035,-0.598 1.39,-1.921 0.792,-2.957l-7.577 -13.123c-1.195,-2.071 -3.843,-2.78 -5.914,-1.584l-33.746 19.483 9.742 16.872c0.597,1.035 1.922,1.39 2.957,0.792l0 0.001z"/>
     <path class="fil11" d="M107.129 75.059l-18.747 10.824c-1.036,0.597 -2.36,0.243 -2.958,-0.793l-4.329 -7.499c-0.598,-1.035 -0.243,-2.359 0.792,-2.957l18.748 -10.824c1.036,-0.598 2.359,-0.243 2.957,0.792l4.33 7.499c0.598,1.036 0.243,2.36 -0.793,2.958z"/>
     <path class="fil13" d="M89.676 75.136l0 0c-1.035,0.598 -1.39,1.922 -0.792,2.957l3.247 5.624 3.75 -2.164 -3.247 -5.625c-0.598,-1.035 -1.923,-1.39 -2.958,-0.792z"/>
     <path class="fil13" d="M97.175 70.806l0 0c-1.035,0.598 -1.39,1.923 -0.793,2.958l3.248 5.624 3.75 -2.165 -3.248 -5.624c-0.597,-1.035 -1.921,-1.391 -2.957,-0.793z"/>
     <path class="fil12" d="M91.473 56.601l-56.242 32.472c-1.036,0.597 -2.36,0.243 -2.958,-0.793l0 0c-0.598,-1.036 -0.243,-2.359 0.793,-2.957l56.242 -32.472c1.036,-0.598 2.36,-0.243 2.957,0.792l0 0c0.598,1.036 0.244,2.36 -0.792,2.958z"/>
    </g>
   </g>
   <g>
    <path class="fil0" d="M84.31 81.067c0.105,-0.255 0.22,-0.507 0.33,-0.759 0.144,-0.329 0.291,-0.657 0.442,-0.983 0.236,-0.511 0.52,-0.999 0.86,-1.448 1.038,-1.418 2.607,-2.295 4.389,-2.295 1.573,0 3.043,0.647 4.069,1.847 0.87,1.017 1.318,2.291 1.318,3.627 0,0.475 -0.054,0.952 -0.121,1.422 -0.011,0.077 -0.023,0.157 -0.031,0.235 -0.002,0.056 -0.005,0.111 -0.01,0.171 -0.083,1.123 -0.14,2.252 -0.14,3.378 0,1.496 0.105,3.036 0.425,4.5 0.226,1.034 0.55,2.101 1.047,3.039 0.36,0.679 0.82,1.267 1.399,1.77 0.664,0.576 1.39,1.062 2.183,1.441 0.927,0.444 1.967,0.732 2.971,0.936 1.353,0.274 2.721,0.464 4.097,0.571 1.639,0.127 3.293,0.166 4.937,0.166l2.316 0 0 -3.279c0,-1.703 0.664,-3.277 1.868,-4.48 1.203,-1.205 2.777,-1.869 4.481,-1.869 1.703,0 3.277,0.664 4.48,1.868l15.404 15.404c1.204,1.204 1.868,2.777 1.868,4.481 0,1.703 -0.664,3.276 -1.868,4.48l-15.404 15.404c-1.204,1.204 -2.777,1.868 -4.48,1.868 -1.704,0 -3.278,-0.664 -4.481,-1.868 -1.204,-1.204 -1.868,-2.777 -1.868,-4.48l0 -3.28 -2.316 0c-11.808,0 -25.53,-2.663 -30.431,-14.903 -1.463,-3.655 -1.911,-7.751 -1.911,-11.662 0,-5.021 2.155,-10.76 4.177,-15.302z"/>
    <path class="fil14" d="M86.15 106.387c3.249,8.083 12.024,12.125 26.325,12.125l6.738 0 0 7.702c0,0.521 0.193,0.972 0.573,1.353 0.381,0.381 0.832,0.573 1.354,0.573 0.521,0 0.972,-0.192 1.353,-0.573l15.404 -15.404c0.381,-0.381 0.573,-0.832 0.573,-1.353 0,-0.521 -0.192,-0.973 -0.573,-1.354l-15.404 -15.404c-0.381,-0.38 -0.832,-0.572 -1.353,-0.572 -0.522,0 -0.973,0.192 -1.354,0.572 -0.38,0.381 -0.573,0.833 -0.573,1.354l0 7.702 -6.738 0c-1.963,0 -3.725,-0.058 -5.279,-0.18 -1.555,-0.119 -3.1,-0.335 -4.633,-0.646 -1.533,-0.311 -2.868,-0.738 -4.002,-1.28 -1.134,-0.543 -2.192,-1.238 -3.173,-2.091 -0.984,-0.854 -1.786,-1.866 -2.408,-3.039 -0.621,-1.173 -1.109,-2.56 -1.46,-4.166 -0.35,-1.604 -0.527,-3.42 -0.527,-5.444 0,-1.103 0.052,-2.338 0.152,-3.703 0,-0.119 0.025,-0.354 0.074,-0.707 0.051,-0.351 0.076,-0.616 0.076,-0.796 0,-0.301 -0.086,-0.552 -0.256,-0.753 -0.171,-0.198 -0.406,-0.298 -0.707,-0.298 -0.32,0 -0.601,0.17 -0.842,0.511 -0.14,0.18 -0.271,0.4 -0.393,0.662 -0.119,0.259 -0.256,0.561 -0.405,0.902 -0.149,0.341 -0.256,0.579 -0.314,0.722 -2.548,5.715 -3.822,10.239 -3.822,13.567 0,3.989 0.53,7.33 1.594,10.018l0 0z"/>
   </g>
  </g>
 </g>
</svg>
